<svg width="512" height="512" viewBox="0 0 512 512" fill="none" xmlns="http://www.w3.org/2000/svg">
<rect width="512" height="512" fill="url(#paint0_radial_1_2)"/>
<path d="M471.1 318.6C475.633 318.6 477.9 324.733 477.9 337C477.9 343.667 475.1 351.8 469.5 361.4C463.9 370.733 456.567 379.4 447.5 387.4C438.7 395.133 428.833 401.533 417.9 406.6C406.967 411.667 395.367 414.2 383.1 414.2C371.1 414.2 361.633 410.333 354.7 402.6C348.033 394.6 344.7 385.8 344.7 376.2C344.7 366.333 346.3 355.267 349.5 343C352.7 330.733 356.167 317.933 359.9 304.6C370.033 269.133 375.233 244.2 375.5 229.8C375.5 223.667 374.7 219 373.1 215.8C371.5 212.333 368.433 210.6 363.9 210.6C355.9 210.6 347.367 215.4 338.3 225C329.233 234.6 320.7 246.867 312.7 261.8C294.3 295.933 284.567 329.267 283.5 361.8C284.033 365.533 284.567 369.267 285.1 373C285.633 376.733 285.9 380.733 285.9 385C285.9 393.533 281.633 401.4 273.1 408.6C264.833 415.533 255.5 419 245.1 419C238.967 419 234.433 416.067 231.5 410.2C228.567 404.067 227.1 396.6 227.1 387.8C227.1 379 229.1 367 233.1 351.8C237.1 336.6 241.5 320.467 246.3 303.4C259.1 258.333 265.633 224.733 265.9 202.6C265.9 191.4 264.433 182.6 261.5 176.2C258.833 169.8 253.5 166.6 245.5 166.6C231.1 166.6 216.833 176.867 202.7 197.4C188.567 217.933 175.9 249.8 164.7 293C161.767 304.2 159.5 313.933 157.9 322.2L157.5 329.8C162.567 354.333 165.1 370.333 165.1 377.8C165.1 393.267 159.633 403.667 148.7 409C143.633 411.4 138.7 413.667 133.9 415.8C129.367 417.933 124.433 419 119.1 419C105.767 419 99.1 406.333 99.1 381C99.1 355.4 106.167 305.533 120.3 231.4C125.367 204.733 127.9 189.8 127.9 186.6C127.9 165 122.433 154.2 111.5 154.2C107.767 154.2 104.3 155.267 101.1 157.4C98.1667 159.533 95.1 161.8 91.9 164.2C88.9667 166.6 85.9 168.867 82.7 171C79.5 173.133 75.7667 174.2 71.5 174.2C67.5 174.2 65.5 170.6 65.5 163.4C65.5 148.733 72.3 136.733 85.9 127.4C98.9667 117.8 114.833 113 133.5 113C157.5 113 171.633 124.2 175.9 146.6C176.967 153.267 177.767 160.333 178.3 167.8C198.033 130.733 222.967 112.2 253.1 112.2C285.9 112.2 304.7 127.933 309.5 159.4C311.1 168.467 311.767 178.2 311.5 188.6V191.8C328.833 167.8 349.367 155.8 373.1 155.8C406.7 155.8 423.5 176.067 423.5 216.6C423.5 234.2 420.7 254.867 415.1 278.6C409.767 302.067 405.767 319 403.1 329.4C400.7 339.533 399.5 347.4 399.5 353C399.5 363.133 402.967 368.2 409.9 368.2C417.1 368.2 434.033 354.333 460.7 326.6C465.5 321.267 468.967 318.6 471.1 318.6Z" fill="#0A0A0A"/>
<defs>
<radialGradient id="paint0_radial_1_2" cx="0" cy="0" r="1" gradientUnits="userSpaceOnUse" gradientTransform="translate(256 256) rotate(90) scale(256)">
<stop stop-color="#FDE68A"/>
<stop offset="1" stop-color="#FBBF24"/>
</radialGradient>
</defs>
</svg>
