<svg width="1200" height="630" viewBox="0 0 1200 630" fill="none" xmlns="http://www.w3.org/2000/svg">
    <rect width="1200" height="630" fill="url(#paint0_radial_4_57)" />
    <rect x="491" y="103" width="218" height="44" rx="22" stroke="#0A0A0A" stroke-width="2" />
    <path
        d="M514.688 117.2C515.568 117.2 516.36 117.416 517.064 117.848C517.768 118.28 518.32 118.872 518.72 119.624C519.136 120.376 519.344 121.232 519.344 122.192C519.344 123.136 519.136 123.992 518.72 124.76C518.32 125.528 517.768 126.136 517.064 126.584C516.36 127.032 515.568 127.256 514.688 127.256H509.816L509.984 126.968V133.016C509.984 133.288 509.896 133.52 509.72 133.712C509.544 133.904 509.32 134 509.048 134C508.76 134 508.528 133.904 508.352 133.712C508.192 133.52 508.112 133.288 508.112 133.016V118.16C508.112 117.888 508.2 117.664 508.376 117.488C508.568 117.296 508.8 117.2 509.072 117.2H514.688ZM514.688 125.408C515.216 125.408 515.68 125.264 516.08 124.976C516.48 124.688 516.8 124.296 517.04 123.8C517.28 123.304 517.4 122.768 517.4 122.192C517.4 121.584 517.28 121.048 517.04 120.584C516.8 120.12 516.48 119.752 516.08 119.48C515.68 119.192 515.216 119.048 514.688 119.048H509.816L509.984 118.784V125.648L509.816 125.408H514.688ZM523.103 134C522.831 134 522.599 133.904 522.407 133.712C522.231 133.52 522.143 133.288 522.143 133.016V122.552C522.143 122.28 522.231 122.056 522.407 121.88C522.599 121.688 522.831 121.592 523.103 121.592C523.391 121.592 523.623 121.688 523.799 121.88C523.975 122.056 524.063 122.28 524.063 122.552V125.72L523.775 125.216C523.871 124.72 524.039 124.24 524.279 123.776C524.535 123.296 524.855 122.872 525.239 122.504C525.623 122.12 526.063 121.824 526.559 121.616C527.055 121.392 527.599 121.28 528.191 121.28C528.543 121.28 528.863 121.368 529.151 121.544C529.455 121.704 529.607 121.936 529.607 122.24C529.607 122.576 529.519 122.824 529.343 122.984C529.167 123.144 528.967 123.224 528.743 123.224C528.535 123.224 528.335 123.184 528.143 123.104C527.951 123.008 527.711 122.96 527.423 122.96C527.023 122.96 526.623 123.072 526.223 123.296C525.839 123.504 525.479 123.808 525.143 124.208C524.823 124.608 524.559 125.064 524.351 125.576C524.159 126.072 524.063 126.608 524.063 127.184V133.016C524.063 133.288 523.967 133.52 523.775 133.712C523.599 133.904 523.375 134 523.103 134ZM543.021 127.76C543.021 129.008 542.741 130.12 542.181 131.096C541.637 132.072 540.893 132.84 539.949 133.4C539.021 133.96 537.973 134.24 536.805 134.24C535.637 134.24 534.581 133.96 533.637 133.4C532.693 132.84 531.941 132.072 531.381 131.096C530.837 130.12 530.565 129.008 530.565 127.76C530.565 126.512 530.837 125.4 531.381 124.424C531.941 123.448 532.693 122.68 533.637 122.12C534.581 121.56 535.637 121.28 536.805 121.28C537.973 121.28 539.021 121.56 539.949 122.12C540.893 122.68 541.637 123.448 542.181 124.424C542.741 125.4 543.021 126.512 543.021 127.76ZM541.101 127.76C541.101 126.832 540.909 126.016 540.525 125.312C540.157 124.608 539.645 124.056 538.989 123.656C538.349 123.256 537.621 123.056 536.805 123.056C535.989 123.056 535.253 123.256 534.597 123.656C533.957 124.056 533.445 124.608 533.061 125.312C532.677 126.016 532.485 126.832 532.485 127.76C532.485 128.672 532.677 129.48 533.061 130.184C533.445 130.888 533.957 131.448 534.597 131.864C535.253 132.264 535.989 132.464 536.805 132.464C537.621 132.464 538.349 132.264 538.989 131.864C539.645 131.448 540.157 130.888 540.525 130.184C540.909 129.48 541.101 128.672 541.101 127.76ZM556.133 116.24C556.405 116.24 556.629 116.336 556.805 116.528C556.997 116.704 557.093 116.928 557.093 117.2V133.016C557.093 133.288 556.997 133.52 556.805 133.712C556.629 133.904 556.405 134 556.133 134C555.845 134 555.613 133.904 555.437 133.712C555.261 133.52 555.173 133.288 555.173 133.016V130.736L555.629 130.568C555.629 130.952 555.509 131.36 555.269 131.792C555.029 132.208 554.701 132.6 554.285 132.968C553.869 133.336 553.373 133.64 552.797 133.88C552.237 134.12 551.629 134.24 550.973 134.24C549.901 134.24 548.925 133.96 548.045 133.4C547.181 132.84 546.493 132.072 545.981 131.096C545.485 130.12 545.237 129.008 545.237 127.76C545.237 126.496 545.485 125.376 545.981 124.4C546.493 123.424 547.181 122.664 548.045 122.12C548.909 121.56 549.869 121.28 550.925 121.28C551.597 121.28 552.229 121.392 552.821 121.616C553.413 121.84 553.925 122.144 554.357 122.528C554.805 122.912 555.157 123.336 555.413 123.8C555.669 124.264 555.797 124.728 555.797 125.192L555.173 125.048V117.2C555.173 116.928 555.261 116.704 555.437 116.528C555.613 116.336 555.845 116.24 556.133 116.24ZM551.189 132.464C551.989 132.464 552.693 132.264 553.301 131.864C553.925 131.448 554.405 130.888 554.741 130.184C555.093 129.464 555.269 128.656 555.269 127.76C555.269 126.848 555.093 126.04 554.741 125.336C554.405 124.632 553.925 124.08 553.301 123.68C552.693 123.264 551.989 123.056 551.189 123.056C550.405 123.056 549.701 123.264 549.077 123.68C548.469 124.08 547.989 124.632 547.637 125.336C547.285 126.04 547.109 126.848 547.109 127.76C547.109 128.64 547.285 129.44 547.637 130.16C547.989 130.864 548.469 131.424 549.077 131.84C549.701 132.256 550.405 132.464 551.189 132.464ZM570.314 121.592C570.602 121.592 570.834 121.688 571.01 121.88C571.186 122.056 571.274 122.28 571.274 122.552V129.104C571.274 130.72 570.818 131.976 569.906 132.872C569.01 133.752 567.754 134.192 566.138 134.192C564.538 134.192 563.282 133.752 562.37 132.872C561.474 131.976 561.026 130.72 561.026 129.104V122.552C561.026 122.28 561.114 122.056 561.29 121.88C561.482 121.688 561.714 121.592 561.986 121.592C562.274 121.592 562.506 121.688 562.682 121.88C562.858 122.056 562.946 122.28 562.946 122.552V129.104C562.946 130.192 563.226 131.016 563.786 131.576C564.346 132.136 565.13 132.416 566.138 132.416C567.178 132.416 567.97 132.136 568.514 131.576C569.074 131.016 569.354 130.192 569.354 129.104V122.552C569.354 122.28 569.442 122.056 569.618 121.88C569.81 121.688 570.042 121.592 570.314 121.592ZM580.351 121.28C581.167 121.28 581.903 121.368 582.559 121.544C583.215 121.72 583.735 121.96 584.119 122.264C584.503 122.568 584.695 122.912 584.695 123.296C584.695 123.504 584.623 123.704 584.479 123.896C584.335 124.088 584.143 124.184 583.903 124.184C583.679 124.184 583.495 124.144 583.351 124.064C583.223 123.984 583.095 123.88 582.967 123.752C582.855 123.624 582.695 123.512 582.487 123.416C582.295 123.304 582.015 123.216 581.647 123.152C581.279 123.088 580.911 123.056 580.543 123.056C579.663 123.056 578.887 123.264 578.215 123.68C577.559 124.096 577.039 124.656 576.655 125.36C576.271 126.064 576.079 126.864 576.079 127.76C576.079 128.656 576.263 129.456 576.631 130.16C576.999 130.864 577.511 131.424 578.167 131.84C578.823 132.256 579.583 132.464 580.447 132.464C581.007 132.464 581.455 132.416 581.791 132.32C582.127 132.224 582.407 132.112 582.631 131.984C582.919 131.824 583.135 131.664 583.279 131.504C583.439 131.344 583.647 131.264 583.903 131.264C584.175 131.264 584.383 131.352 584.527 131.528C584.687 131.704 584.767 131.92 584.767 132.176C584.767 132.464 584.567 132.768 584.167 133.088C583.767 133.408 583.223 133.68 582.535 133.904C581.863 134.128 581.095 134.24 580.231 134.24C579.015 134.24 577.951 133.96 577.039 133.4C576.127 132.824 575.415 132.048 574.903 131.072C574.407 130.08 574.159 128.976 574.159 127.76C574.159 126.544 574.415 125.448 574.927 124.472C575.455 123.496 576.183 122.72 577.111 122.144C578.039 121.568 579.119 121.28 580.351 121.28ZM586.796 121.664H592.436C592.692 121.664 592.9 121.752 593.06 121.928C593.236 122.104 593.324 122.312 593.324 122.552C593.324 122.808 593.236 123.024 593.06 123.2C592.9 123.36 592.692 123.44 592.436 123.44H586.796C586.556 123.44 586.348 123.352 586.172 123.176C585.996 123 585.908 122.784 585.908 122.528C585.908 122.288 585.996 122.088 586.172 121.928C586.348 121.752 586.556 121.664 586.796 121.664ZM589.316 118.4C589.588 118.4 589.812 118.496 589.988 118.688C590.164 118.864 590.252 119.088 590.252 119.36V130.952C590.252 131.336 590.308 131.624 590.42 131.816C590.532 132.008 590.676 132.144 590.852 132.224C591.044 132.288 591.228 132.32 591.404 132.32C591.564 132.32 591.7 132.296 591.812 132.248C591.94 132.184 592.084 132.152 592.244 132.152C592.404 132.152 592.548 132.232 592.676 132.392C592.82 132.536 592.892 132.728 592.892 132.968C592.892 133.256 592.724 133.504 592.388 133.712C592.052 133.904 591.676 134 591.26 134C591.036 134 590.756 133.984 590.42 133.952C590.1 133.92 589.78 133.816 589.46 133.64C589.14 133.464 588.868 133.176 588.644 132.776C588.436 132.36 588.332 131.784 588.332 131.048V119.36C588.332 119.088 588.428 118.864 588.62 118.688C588.812 118.496 589.044 118.4 589.316 118.4ZM597.843 133.016C597.843 133.288 597.747 133.52 597.555 133.712C597.379 133.904 597.155 134 596.883 134C596.595 134 596.363 133.904 596.187 133.712C596.011 133.52 595.923 133.288 595.923 133.016V122.36C595.923 122.088 596.011 121.864 596.187 121.688C596.379 121.496 596.611 121.4 596.883 121.4C597.155 121.4 597.379 121.496 597.555 121.688C597.747 121.864 597.843 122.088 597.843 122.36V133.016ZM596.883 119.792C596.483 119.792 596.187 119.712 595.995 119.552C595.803 119.392 595.707 119.144 595.707 118.808V118.472C595.707 118.136 595.811 117.888 596.019 117.728C596.227 117.568 596.523 117.488 596.907 117.488C597.291 117.488 597.579 117.568 597.771 117.728C597.963 117.888 598.059 118.136 598.059 118.472V118.808C598.059 119.144 597.955 119.392 597.747 119.552C597.555 119.712 597.267 119.792 596.883 119.792ZM601.292 121.376C601.484 121.376 601.668 121.432 601.844 121.544C602.02 121.64 602.148 121.784 602.228 121.976L606.212 131.336L605.828 131.528L609.884 122C610.06 121.568 610.356 121.36 610.772 121.376C611.012 121.376 611.22 121.456 611.396 121.616C611.572 121.776 611.66 121.976 611.66 122.216C611.66 122.312 611.644 122.408 611.612 122.504C611.596 122.584 611.572 122.656 611.54 122.72L606.908 133.376C606.732 133.776 606.452 133.984 606.068 134C605.86 134.016 605.66 133.976 605.468 133.88C605.292 133.768 605.164 133.6 605.084 133.376L600.452 122.744C600.42 122.68 600.388 122.608 600.356 122.528C600.34 122.448 600.332 122.352 600.332 122.24C600.332 122.032 600.412 121.84 600.572 121.664C600.748 121.472 600.988 121.376 601.292 121.376ZM616.101 133.016C616.101 133.288 616.005 133.52 615.813 133.712C615.637 133.904 615.413 134 615.141 134C614.853 134 614.621 133.904 614.445 133.712C614.269 133.52 614.181 133.288 614.181 133.016V122.36C614.181 122.088 614.269 121.864 614.445 121.688C614.637 121.496 614.869 121.4 615.141 121.4C615.413 121.4 615.637 121.496 615.813 121.688C616.005 121.864 616.101 122.088 616.101 122.36V133.016ZM615.141 119.792C614.741 119.792 614.445 119.712 614.253 119.552C614.061 119.392 613.965 119.144 613.965 118.808V118.472C613.965 118.136 614.069 117.888 614.277 117.728C614.485 117.568 614.781 117.488 615.165 117.488C615.549 117.488 615.837 117.568 616.029 117.728C616.221 117.888 616.317 118.136 616.317 118.472V118.808C616.317 119.144 616.213 119.392 616.005 119.552C615.813 119.712 615.525 119.792 615.141 119.792ZM619.069 121.664H624.709C624.965 121.664 625.173 121.752 625.333 121.928C625.509 122.104 625.597 122.312 625.597 122.552C625.597 122.808 625.509 123.024 625.333 123.2C625.173 123.36 624.965 123.44 624.709 123.44H619.069C618.829 123.44 618.621 123.352 618.445 123.176C618.269 123 618.181 122.784 618.181 122.528C618.181 122.288 618.269 122.088 618.445 121.928C618.621 121.752 618.829 121.664 619.069 121.664ZM621.589 118.4C621.861 118.4 622.085 118.496 622.261 118.688C622.437 118.864 622.525 119.088 622.525 119.36V130.952C622.525 131.336 622.581 131.624 622.693 131.816C622.805 132.008 622.949 132.144 623.125 132.224C623.317 132.288 623.501 132.32 623.677 132.32C623.837 132.32 623.973 132.296 624.085 132.248C624.213 132.184 624.357 132.152 624.517 132.152C624.677 132.152 624.821 132.232 624.949 132.392C625.093 132.536 625.165 132.728 625.165 132.968C625.165 133.256 624.997 133.504 624.661 133.712C624.325 133.904 623.949 134 623.533 134C623.309 134 623.029 133.984 622.693 133.952C622.373 133.92 622.053 133.816 621.733 133.64C621.413 133.464 621.141 133.176 620.917 132.776C620.709 132.36 620.605 131.784 620.605 131.048V119.36C620.605 119.088 620.701 118.864 620.893 118.688C621.085 118.496 621.317 118.4 621.589 118.4ZM637.556 121.4C637.828 121.4 638.052 121.496 638.228 121.688C638.42 121.864 638.516 122.088 638.516 122.36V132.824C638.516 134.168 638.252 135.28 637.724 136.16C637.196 137.056 636.484 137.72 635.588 138.152C634.708 138.584 633.708 138.8 632.588 138.8C631.964 138.8 631.364 138.736 630.788 138.608C630.212 138.48 629.74 138.312 629.372 138.104C629.068 137.96 628.852 137.776 628.724 137.552C628.612 137.344 628.596 137.12 628.676 136.88C628.788 136.592 628.948 136.392 629.156 136.28C629.38 136.168 629.612 136.168 629.852 136.28C630.108 136.392 630.476 136.544 630.956 136.736C631.452 136.944 632.004 137.048 632.612 137.048C633.444 137.048 634.156 136.888 634.748 136.568C635.34 136.248 635.796 135.776 636.116 135.152C636.436 134.544 636.596 133.784 636.596 132.872V131.168L636.884 131.768C636.628 132.264 636.284 132.696 635.852 133.064C635.42 133.432 634.924 133.72 634.364 133.928C633.804 134.136 633.188 134.24 632.516 134.24C631.604 134.24 630.828 134.048 630.188 133.664C629.564 133.264 629.084 132.72 628.748 132.032C628.428 131.328 628.268 130.52 628.268 129.608V122.36C628.268 122.088 628.356 121.864 628.532 121.688C628.724 121.496 628.956 121.4 629.228 121.4C629.516 121.4 629.748 121.496 629.924 121.688C630.1 121.864 630.188 122.088 630.188 122.36V129.176C630.188 130.264 630.428 131.088 630.908 131.648C631.388 132.192 632.132 132.464 633.14 132.464C633.78 132.464 634.356 132.32 634.868 132.032C635.396 131.744 635.812 131.352 636.116 130.856C636.436 130.344 636.596 129.784 636.596 129.176V122.36C636.596 122.088 636.684 121.864 636.86 121.688C637.036 121.496 637.268 121.4 637.556 121.4ZM654.226 134C653.938 134 653.698 133.904 653.506 133.712C653.314 133.52 653.218 133.288 653.218 133.016V118.184H655.258V133.016C655.258 133.288 655.162 133.52 654.97 133.712C654.778 133.904 654.53 134 654.226 134ZM648.658 119.024C648.386 119.024 648.154 118.944 647.962 118.784C647.786 118.608 647.698 118.384 647.698 118.112C647.698 117.84 647.786 117.624 647.962 117.464C648.154 117.288 648.386 117.2 648.658 117.2H659.818C660.09 117.2 660.322 117.288 660.514 117.464C660.706 117.624 660.802 117.84 660.802 118.112C660.802 118.4 660.706 118.624 660.514 118.784C660.322 118.944 660.09 119.024 659.818 119.024H648.658ZM672.255 127.76C672.255 129.008 671.975 130.12 671.415 131.096C670.871 132.072 670.127 132.84 669.183 133.4C668.255 133.96 667.207 134.24 666.039 134.24C664.871 134.24 663.815 133.96 662.871 133.4C661.927 132.84 661.175 132.072 660.615 131.096C660.071 130.12 659.799 129.008 659.799 127.76C659.799 126.512 660.071 125.4 660.615 124.424C661.175 123.448 661.927 122.68 662.871 122.12C663.815 121.56 664.871 121.28 666.039 121.28C667.207 121.28 668.255 121.56 669.183 122.12C670.127 122.68 670.871 123.448 671.415 124.424C671.975 125.4 672.255 126.512 672.255 127.76ZM670.335 127.76C670.335 126.832 670.143 126.016 669.759 125.312C669.391 124.608 668.879 124.056 668.223 123.656C667.583 123.256 666.855 123.056 666.039 123.056C665.223 123.056 664.487 123.256 663.831 123.656C663.191 124.056 662.679 124.608 662.295 125.312C661.911 126.016 661.719 126.832 661.719 127.76C661.719 128.672 661.911 129.48 662.295 130.184C662.679 130.888 663.191 131.448 663.831 131.864C664.487 132.264 665.223 132.464 666.039 132.464C666.855 132.464 667.583 132.264 668.223 131.864C668.879 131.448 669.391 130.888 669.759 130.184C670.143 129.48 670.335 128.672 670.335 127.76ZM686.927 127.76C686.927 129.008 686.647 130.12 686.087 131.096C685.543 132.072 684.799 132.84 683.855 133.4C682.927 133.96 681.879 134.24 680.711 134.24C679.543 134.24 678.487 133.96 677.543 133.4C676.599 132.84 675.847 132.072 675.287 131.096C674.743 130.12 674.471 129.008 674.471 127.76C674.471 126.512 674.743 125.4 675.287 124.424C675.847 123.448 676.599 122.68 677.543 122.12C678.487 121.56 679.543 121.28 680.711 121.28C681.879 121.28 682.927 121.56 683.855 122.12C684.799 122.68 685.543 123.448 686.087 124.424C686.647 125.4 686.927 126.512 686.927 127.76ZM685.007 127.76C685.007 126.832 684.815 126.016 684.431 125.312C684.063 124.608 683.551 124.056 682.895 123.656C682.255 123.256 681.527 123.056 680.711 123.056C679.895 123.056 679.159 123.256 678.503 123.656C677.863 124.056 677.351 124.608 676.967 125.312C676.583 126.016 676.391 126.832 676.391 127.76C676.391 128.672 676.583 129.48 676.967 130.184C677.351 130.888 677.863 131.448 678.503 131.864C679.159 132.264 679.895 132.464 680.711 132.464C681.527 132.464 682.255 132.264 682.895 131.864C683.551 131.448 684.063 130.888 684.431 130.184C684.815 129.48 685.007 128.672 685.007 127.76ZM691.927 133.016C691.927 133.288 691.831 133.52 691.639 133.712C691.447 133.904 691.215 134 690.943 134C690.671 134 690.447 133.904 690.271 133.712C690.095 133.52 690.007 133.288 690.007 133.016V117.2C690.007 116.928 690.095 116.704 690.271 116.528C690.463 116.336 690.695 116.24 690.967 116.24C691.255 116.24 691.487 116.336 691.663 116.528C691.839 116.704 691.927 116.928 691.927 117.2V133.016Z"
        fill="#0A0A0A" />
    <path
        d="M509.792 285.792C511.243 285.792 511.968 287.755 511.968 291.68C511.968 293.813 511.072 296.416 509.28 299.488C507.488 302.475 505.141 305.248 502.24 307.808C499.424 310.283 496.267 312.331 492.768 313.952C489.269 315.573 485.557 316.384 481.632 316.384C477.792 316.384 474.763 315.147 472.544 312.672C470.411 310.112 469.344 307.296 469.344 304.224C469.344 301.067 469.856 297.525 470.88 293.6C471.904 289.675 473.013 285.579 474.208 281.312C477.451 269.963 479.115 261.984 479.2 257.376C479.2 255.413 478.944 253.92 478.432 252.896C477.92 251.787 476.939 251.232 475.488 251.232C472.928 251.232 470.197 252.768 467.296 255.84C464.395 258.912 461.664 262.837 459.104 267.616C453.216 278.539 450.101 289.205 449.76 299.616C449.931 300.811 450.101 302.005 450.272 303.2C450.443 304.395 450.528 305.675 450.528 307.04C450.528 309.771 449.163 312.288 446.432 314.592C443.787 316.811 440.8 317.92 437.472 317.92C435.509 317.92 434.059 316.981 433.12 315.104C432.181 313.141 431.712 310.752 431.712 307.936C431.712 305.12 432.352 301.28 433.632 296.416C434.912 291.552 436.32 286.389 437.856 280.928C441.952 266.507 444.043 255.755 444.128 248.672C444.128 245.088 443.659 242.272 442.72 240.224C441.867 238.176 440.16 237.152 437.6 237.152C432.992 237.152 428.427 240.437 423.904 247.008C419.381 253.579 415.328 263.776 411.744 277.6C410.805 281.184 410.08 284.299 409.568 286.944L409.44 289.376C411.061 297.227 411.872 302.347 411.872 304.736C411.872 309.685 410.123 313.013 406.624 314.72C405.003 315.488 403.424 316.213 401.888 316.896C400.437 317.579 398.859 317.92 397.152 317.92C392.885 317.92 390.752 313.867 390.752 305.76C390.752 297.568 393.013 281.611 397.536 257.888C399.157 249.355 399.968 244.576 399.968 243.552C399.968 236.64 398.219 233.184 394.72 233.184C393.525 233.184 392.416 233.525 391.392 234.208C390.453 234.891 389.472 235.616 388.448 236.384C387.509 237.152 386.528 237.877 385.504 238.56C384.48 239.243 383.285 239.584 381.92 239.584C380.64 239.584 380 238.432 380 236.128C380 231.435 382.176 227.595 386.528 224.608C390.709 221.536 395.787 220 401.76 220C409.44 220 413.963 223.584 415.328 230.752C415.669 232.885 415.925 235.147 416.096 237.536C422.411 225.675 430.389 219.744 440.032 219.744C450.528 219.744 456.544 224.779 458.08 234.848C458.592 237.749 458.805 240.864 458.72 244.192V245.216C464.267 237.536 470.837 233.696 478.432 233.696C489.184 233.696 494.56 240.181 494.56 253.152C494.56 258.784 493.664 265.397 491.872 272.992C490.165 280.501 488.885 285.92 488.032 289.248C487.264 292.491 486.88 295.008 486.88 296.8C486.88 300.043 487.989 301.664 490.208 301.664C492.512 301.664 497.931 297.227 506.464 288.352C508 286.645 509.109 285.792 509.792 285.792ZM584.182 285.792C585.718 285.792 586.486 287.755 586.486 291.68C586.486 293.813 585.59 296.416 583.798 299.488C582.006 302.475 579.659 305.248 576.758 307.808C573.942 310.283 570.785 312.331 567.286 313.952C563.787 315.573 560.374 316.384 557.046 316.384C552.523 316.384 549.494 312.416 547.958 304.48C545.739 308.149 542.838 311.179 539.254 313.568C535.67 315.872 530.849 317.024 524.79 317.024C518.817 317.024 513.995 315.147 510.326 311.392C506.657 307.637 504.865 303.072 504.95 297.696C504.95 283.189 509.771 271.755 519.414 263.392C523.51 259.893 527.307 257.589 530.806 256.48C534.39 255.371 538.145 254.816 542.07 254.816C545.995 254.816 549.195 255.499 551.67 256.864C552.865 254.389 554.23 253.152 555.766 253.152C558.753 253.152 561.569 254.475 564.214 257.12C566.945 259.68 568.31 262.112 568.31 264.416C567.115 267.232 565.366 270.603 563.062 274.528C562.379 278.453 562.038 283.957 562.038 291.04C562.038 298.123 562.934 301.664 564.726 301.664C566.945 301.664 572.321 297.227 580.854 288.352C582.39 286.645 583.499 285.792 584.182 285.792ZM523.766 293.472C523.766 300.043 526.198 303.328 531.062 303.328C536.267 303.243 540.577 300.469 543.99 295.008C545.185 293.131 546.166 290.827 546.934 288.096C546.934 278.539 547.787 270.347 549.494 263.52C542.582 264.885 536.566 268.213 531.446 273.504C526.326 278.795 523.766 285.451 523.766 293.472ZM598.778 294.496L599.546 310.112C599.546 312.16 598.479 313.995 596.346 315.616C594.213 317.237 591.311 318.048 587.642 318.048C585.509 318.048 584.015 316.939 583.162 314.72C582.394 312.501 582.01 309.259 582.01 304.992C582.01 296.032 582.437 289.035 583.29 284C584.229 278.88 586.021 273.717 588.666 268.512C584.741 264.757 582.778 261.515 582.778 258.784C582.778 253.067 585.85 250.208 591.994 250.208C595.151 250.208 597.925 251.872 600.314 255.2C602.021 257.504 603.258 260.192 604.026 263.264C605.221 263.691 606.714 263.904 608.506 263.904C610.981 263.904 613.839 263.093 617.082 261.472L620.41 259.808C621.434 259.296 622.33 259.04 623.098 259.04C625.573 259.04 628.047 262.667 630.522 269.92C629.754 273.248 628.901 276.448 627.962 279.52C627.109 282.592 626.085 286.304 624.89 290.656C623.695 295.008 623.055 297.952 622.97 299.488C622.97 300.939 623.439 301.664 624.378 301.664C625.658 301.664 627.237 300.853 629.114 299.232C630.991 297.611 632.869 295.861 634.746 293.984C636.623 292.021 638.33 290.229 639.866 288.608C641.487 286.987 642.597 286.176 643.194 286.176C644.389 286.176 644.986 287.627 644.986 290.528C644.986 296.416 642.383 302.219 637.178 307.936C632.058 313.653 626.17 316.469 619.514 316.384C615.589 316.384 612.645 314.805 610.682 311.648C608.719 308.491 607.695 304.651 607.61 300.128C607.61 291.168 609.615 282.677 613.626 274.656C611.749 275.424 609.615 275.808 607.226 275.808C604.922 275.808 603.258 275.723 602.234 275.552C601.466 278.795 600.698 282.08 599.93 285.408C599.162 288.651 598.778 291.68 598.778 294.496ZM675.966 287.968C678.27 297.099 682.153 301.664 687.614 301.664C690.259 301.664 692.649 300.853 694.782 299.232C696.915 297.611 698.835 295.861 700.542 293.984C702.249 292.021 703.742 290.229 705.022 288.608C706.302 286.987 707.497 286.176 708.606 286.176C709.715 286.176 710.27 287.627 710.27 290.528C710.27 296.587 707.454 302.432 701.822 308.064C696.19 313.696 689.875 316.469 682.878 316.384C675.966 316.384 669.779 310.283 664.318 298.08C662.782 294.667 661.331 291.211 659.966 287.712L659.07 305.248C659.07 306.869 658.985 308.491 658.814 310.112C658.643 311.648 657.918 312.928 656.638 313.952C653.31 316.597 649.939 317.92 646.526 317.92C642.515 317.92 640.51 313.781 640.51 305.504C640.51 293.557 641.918 281.056 644.734 268C647.55 254.944 650.281 245.131 652.926 238.56C655.657 231.904 657.747 227.467 659.198 225.248C660.734 223.029 661.929 221.664 662.782 221.152C663.635 220.64 664.574 220.384 665.598 220.384C666.707 220.384 667.859 220.939 669.054 222.048C670.249 223.072 671.529 224.693 672.894 226.912C674.259 229.045 674.942 231.179 674.942 233.312C675.027 235.36 674.686 237.408 673.918 239.456C673.235 241.419 672.297 243.381 671.102 245.344C669.907 247.221 668.585 249.184 667.134 251.232C665.683 253.195 664.233 255.328 662.782 257.632L661.502 268.384C664.489 262.155 668.883 257.973 674.686 255.84C676.734 255.072 679.123 254.688 681.854 254.688C687.315 254.688 691.497 256.011 694.398 258.656C697.299 261.216 698.75 265.013 698.75 270.048C698.75 275.083 696.233 279.349 691.198 282.848C686.163 286.347 681.086 288.053 675.966 287.968ZM680.83 272.992C680.83 269.92 679.081 268.384 675.582 268.384C672.083 268.384 668.286 271.755 664.19 278.496C662.995 280.459 661.971 282.464 661.118 284.512C669.993 284 676.051 281.611 679.294 277.344C680.318 275.979 680.83 274.528 680.83 272.992ZM733.024 254.048C738.741 253.963 743.008 255.029 745.824 257.248C748.64 259.381 750.048 262.496 750.048 266.592C750.048 270.603 748.811 274.059 746.336 276.96C743.947 279.776 741.003 281.781 737.504 282.976C739.979 285.536 742.197 288.139 744.16 290.784C746.208 293.429 747.232 296.203 747.232 299.104C747.232 304.821 744.971 309.259 740.448 312.416C735.925 315.488 729.611 317.024 721.504 317.024C713.483 317.024 707.467 315.445 703.456 312.288C699.445 309.045 697.44 305.419 697.44 301.408C697.44 297.312 698.421 293.6 700.384 290.272C702.432 286.944 704.608 285.28 706.912 285.28C708.277 285.28 709.259 285.792 709.856 286.816C710.453 287.755 711.563 290.571 713.184 295.264C713.781 296.971 714.763 298.592 716.128 300.128C719.285 303.627 724.277 305.376 731.104 305.376C730.08 302.133 728.416 299.36 726.112 297.056C723.893 294.667 721.675 292.363 719.456 290.144C717.237 287.925 715.275 285.579 713.568 283.104C711.861 280.544 711.008 277.557 711.008 274.144C711.008 268 713.312 263.008 717.92 259.168C722.272 255.755 727.307 254.048 733.024 254.048ZM732.512 277.728C735.925 274.059 737.632 271.115 737.632 268.896C737.632 267.872 737.248 266.976 736.48 266.208C735.797 265.355 734.773 264.928 733.408 264.928C732.043 264.928 730.72 265.099 729.44 265.44C728.245 265.781 727.264 266.037 726.496 266.208C726.496 269.451 728.501 273.291 732.512 277.728ZM789.647 306.656C785.38 312.544 779.663 315.488 772.495 315.488C766.692 315.488 762.042 314.293 758.543 311.904C755.13 309.429 753.423 305.547 753.423 300.256C753.423 298.037 753.722 295.989 754.319 294.112C755.002 292.235 756.068 289.931 757.519 287.2L761.231 256.864C763.876 254.816 767.46 253.792 771.983 253.792C775.823 253.792 777.999 256.352 778.511 261.472C778.682 263.008 778.767 264.843 778.767 266.976C778.767 269.024 778.426 271.2 777.743 273.504C774.33 285.28 772.666 293.173 772.751 297.184C772.751 300.256 774.543 301.792 778.127 301.792C781.711 301.792 784.356 300.64 786.063 298.336C787.77 296.032 789.22 293.173 790.415 289.76C792.634 280.288 794.682 272.48 796.559 266.336C798.522 260.192 799.759 256.523 800.271 255.328C801.124 253.28 802.746 252.213 805.135 252.128C807.524 252.213 809.786 253.92 811.919 257.248C814.052 260.491 815.119 263.008 815.119 264.8C814.948 270.773 811.236 285.835 803.983 309.984C809.53 305.632 815.034 300.299 820.495 293.984C822.372 291.765 823.951 289.931 825.231 288.48C826.511 286.944 827.535 286.176 828.303 286.176C829.498 286.176 830.095 287.541 830.095 290.272C830.095 295.648 827.066 301.92 821.007 309.088C815.034 316.256 807.695 321.845 798.991 325.856C797.967 329.269 796.858 332.512 795.663 335.584C794.468 338.656 792.932 341.344 791.055 343.648C786.959 348.597 780.73 351.072 772.367 351.072C766.735 351.072 761.914 349.451 757.903 346.208C753.978 342.965 752.015 338.912 752.015 334.048C752.015 331.317 752.911 329.141 754.703 327.52C756.58 325.899 759.098 324.533 762.255 323.424C765.498 322.4 769.252 321.461 773.519 320.608C777.786 319.84 782.351 318.859 787.215 317.664C788.41 312.544 789.22 308.875 789.647 306.656ZM772.239 341.216C776.25 341.216 779.876 337.717 783.119 330.72C780.047 331.317 777.316 331.744 774.927 332C772.538 332.341 770.49 332.64 768.783 332.896C765.37 333.408 763.706 334.304 763.791 335.584C763.791 337.205 764.73 338.571 766.607 339.68C768.57 340.789 770.447 341.301 772.239 341.216Z"
        fill="#0A0A0A" />
    <path
        d="M287.656 432C286.461 432 285.48 431.637 284.712 430.912C283.944 430.144 283.56 429.205 283.56 428.096V390.976H291.88V428.096C291.88 429.205 291.474 430.144 290.664 430.912C289.896 431.637 288.893 432 287.656 432ZM273.512 394.56C272.402 394.56 271.464 394.219 270.696 393.536C269.97 392.853 269.608 391.957 269.608 390.848C269.608 389.739 269.97 388.864 270.696 388.224C271.464 387.541 272.402 387.2 273.512 387.2H301.928C303.037 387.2 303.954 387.541 304.68 388.224C305.448 388.907 305.832 389.803 305.832 390.912C305.832 392.021 305.448 392.917 304.68 393.6C303.954 394.24 303.037 394.56 301.928 394.56H273.512ZM329.631 397.76C330.74 397.76 331.657 398.144 332.382 398.912C333.108 399.637 333.471 400.555 333.471 401.664V417.92C333.471 422.443 332.212 426.027 329.695 428.672C327.177 431.317 323.551 432.64 318.815 432.64C314.079 432.64 310.452 431.317 307.935 428.672C305.46 426.027 304.223 422.443 304.223 417.92V401.664C304.223 400.555 304.585 399.637 305.311 398.912C306.036 398.144 306.953 397.76 308.062 397.76C309.172 397.76 310.089 398.144 310.815 398.912C311.54 399.637 311.903 400.555 311.903 401.664V417.92C311.903 420.523 312.479 422.464 313.631 423.744C314.783 424.981 316.511 425.6 318.815 425.6C321.161 425.6 322.911 424.981 324.063 423.744C325.215 422.464 325.791 420.523 325.791 417.92V401.664C325.791 400.555 326.153 399.637 326.879 398.912C327.604 398.144 328.521 397.76 329.631 397.76ZM345.625 432C344.516 432 343.598 431.637 342.873 430.912C342.148 430.144 341.785 429.205 341.785 428.096V401.664C341.785 400.555 342.148 399.637 342.873 398.912C343.598 398.144 344.516 397.76 345.625 397.76C346.734 397.76 347.652 398.144 348.377 398.912C349.102 399.637 349.465 400.555 349.465 401.664V407.68L349.017 403.392C349.486 402.368 350.084 401.472 350.809 400.704C351.577 399.893 352.43 399.232 353.369 398.72C354.308 398.165 355.31 397.76 356.377 397.504C357.444 397.248 358.51 397.12 359.577 397.12C360.857 397.12 361.924 397.483 362.777 398.208C363.673 398.933 364.121 399.787 364.121 400.768C364.121 402.176 363.758 403.2 363.033 403.84C362.308 404.437 361.518 404.736 360.665 404.736C359.854 404.736 359.108 404.587 358.425 404.288C357.785 403.989 357.038 403.84 356.185 403.84C355.417 403.84 354.628 404.032 353.817 404.416C353.049 404.757 352.324 405.312 351.641 406.08C351.001 406.848 350.468 407.808 350.041 408.96C349.657 410.069 349.465 411.392 349.465 412.928V428.096C349.465 429.205 349.102 430.144 348.377 430.912C347.652 431.637 346.734 432 345.625 432ZM387.839 397.12C390.996 397.12 393.386 397.781 395.007 399.104C396.671 400.427 397.802 402.197 398.399 404.416C399.039 406.592 399.359 409.024 399.359 411.712V428.096C399.359 429.205 398.996 430.144 398.271 430.912C397.546 431.637 396.628 432 395.519 432C394.41 432 393.492 431.637 392.767 430.912C392.042 430.144 391.679 429.205 391.679 428.096V411.712C391.679 410.304 391.487 409.045 391.103 407.936C390.762 406.784 390.122 405.867 389.183 405.184C388.244 404.501 386.9 404.16 385.151 404.16C383.444 404.16 381.994 404.501 380.799 405.184C379.647 405.867 378.751 406.784 378.111 407.936C377.514 409.045 377.215 410.304 377.215 411.712V428.096C377.215 429.205 376.852 430.144 376.127 430.912C375.402 431.637 374.484 432 373.375 432C372.266 432 371.348 431.637 370.623 430.912C369.898 430.144 369.535 429.205 369.535 428.096V401.664C369.535 400.555 369.898 399.637 370.623 398.912C371.348 398.144 372.266 397.76 373.375 397.76C374.484 397.76 375.402 398.144 376.127 398.912C376.852 399.637 377.215 400.555 377.215 401.664V404.416L376.255 404.224C376.639 403.499 377.194 402.731 377.919 401.92C378.644 401.067 379.498 400.277 380.479 399.552C381.46 398.827 382.57 398.251 383.807 397.824C385.044 397.355 386.388 397.12 387.839 397.12ZM451.006 397.76C452.115 397.76 453.032 398.144 453.757 398.912C454.483 399.637 454.846 400.555 454.846 401.664V428.864C454.846 432.789 454.099 435.904 452.606 438.208C451.155 440.555 449.192 442.24 446.718 443.264C444.243 444.288 441.47 444.8 438.398 444.8C437.032 444.8 435.582 444.693 434.046 444.48C432.51 444.267 431.251 443.947 430.27 443.52C428.99 442.965 428.094 442.261 427.582 441.408C427.112 440.597 427.027 439.723 427.326 438.784C427.71 437.547 428.328 436.693 429.182 436.224C430.035 435.797 430.931 435.755 431.87 436.096C432.552 436.309 433.448 436.629 434.558 437.056C435.667 437.525 436.947 437.76 438.398 437.76C440.36 437.76 441.982 437.483 443.262 436.928C444.584 436.416 445.566 435.52 446.206 434.24C446.888 433.003 447.23 431.296 447.23 429.12V424.832L448.574 426.368C447.848 427.776 446.931 428.949 445.822 429.888C444.755 430.784 443.475 431.467 441.982 431.936C440.488 432.405 438.782 432.64 436.862 432.64C434.6 432.64 432.616 432.128 430.91 431.104C429.246 430.037 427.944 428.587 427.006 426.752C426.067 424.875 425.598 422.741 425.598 420.352V401.664C425.598 400.555 425.96 399.637 426.686 398.912C427.411 398.144 428.328 397.76 429.438 397.76C430.547 397.76 431.464 398.144 432.19 398.912C432.915 399.637 433.278 400.555 433.278 401.664V418.048C433.278 420.821 433.875 422.784 435.07 423.936C436.307 425.045 438.014 425.6 440.19 425.6C441.683 425.6 442.942 425.323 443.966 424.768C444.99 424.171 445.779 423.317 446.334 422.208C446.888 421.056 447.166 419.669 447.166 418.048V401.664C447.166 400.555 447.528 399.637 448.254 398.912C448.979 398.144 449.896 397.76 451.006 397.76ZM496.064 414.912C496.064 418.411 495.274 421.504 493.696 424.192C492.16 426.837 490.069 428.907 487.424 430.4C484.821 431.893 481.898 432.64 478.656 432.64C475.413 432.64 472.469 431.893 469.824 430.4C467.221 428.907 465.13 426.837 463.552 424.192C462.016 421.504 461.248 418.411 461.248 414.912C461.248 411.413 462.016 408.341 463.552 405.696C465.13 403.008 467.221 400.917 469.824 399.424C472.469 397.888 475.413 397.12 478.656 397.12C481.898 397.12 484.821 397.888 487.424 399.424C490.069 400.917 492.16 403.008 493.696 405.696C495.274 408.341 496.064 411.413 496.064 414.912ZM488.384 414.912C488.384 412.736 487.936 410.859 487.04 409.28C486.186 407.659 485.013 406.4 483.52 405.504C482.069 404.608 480.448 404.16 478.656 404.16C476.864 404.16 475.221 404.608 473.728 405.504C472.277 406.4 471.104 407.659 470.208 409.28C469.354 410.859 468.928 412.736 468.928 414.912C468.928 417.045 469.354 418.923 470.208 420.544C471.104 422.123 472.277 423.36 473.728 424.256C475.221 425.152 476.864 425.6 478.656 425.6C480.448 425.6 482.069 425.152 483.52 424.256C485.013 423.36 486.186 422.123 487.04 420.544C487.936 418.923 488.384 417.045 488.384 414.912ZM528.193 397.76C529.302 397.76 530.22 398.144 530.945 398.912C531.67 399.637 532.033 400.555 532.033 401.664V417.92C532.033 422.443 530.774 426.027 528.257 428.672C525.74 431.317 522.113 432.64 517.377 432.64C512.641 432.64 509.014 431.317 506.497 428.672C504.022 426.027 502.785 422.443 502.785 417.92V401.664C502.785 400.555 503.148 399.637 503.873 398.912C504.598 398.144 505.516 397.76 506.625 397.76C507.734 397.76 508.652 398.144 509.377 398.912C510.102 399.637 510.465 400.555 510.465 401.664V417.92C510.465 420.523 511.041 422.464 512.193 423.744C513.345 424.981 515.073 425.6 517.377 425.6C519.724 425.6 521.473 424.981 522.625 423.744C523.777 422.464 524.353 420.523 524.353 417.92V401.664C524.353 400.555 524.716 399.637 525.441 398.912C526.166 398.144 527.084 397.76 528.193 397.76ZM544.188 432C543.078 432 542.161 431.637 541.436 430.912C540.71 430.144 540.348 429.205 540.348 428.096V401.664C540.348 400.555 540.71 399.637 541.436 398.912C542.161 398.144 543.078 397.76 544.188 397.76C545.297 397.76 546.214 398.144 546.94 398.912C547.665 399.637 548.028 400.555 548.028 401.664V407.68L547.58 403.392C548.049 402.368 548.646 401.472 549.372 400.704C550.14 399.893 550.993 399.232 551.932 398.72C552.87 398.165 553.873 397.76 554.94 397.504C556.006 397.248 557.073 397.12 558.14 397.12C559.42 397.12 560.486 397.483 561.34 398.208C562.236 398.933 562.684 399.787 562.684 400.768C562.684 402.176 562.321 403.2 561.596 403.84C560.87 404.437 560.081 404.736 559.228 404.736C558.417 404.736 557.67 404.587 556.988 404.288C556.348 403.989 555.601 403.84 554.748 403.84C553.98 403.84 553.19 404.032 552.38 404.416C551.612 404.757 550.886 405.312 550.204 406.08C549.564 406.848 549.03 407.808 548.604 408.96C548.22 410.069 548.028 411.392 548.028 412.928V428.096C548.028 429.205 547.665 430.144 546.94 430.912C546.214 431.637 545.297 432 544.188 432ZM603.763 397.12C606.75 397.12 609.416 397.888 611.763 399.424C614.152 400.917 616.03 402.987 617.395 405.632C618.803 408.277 619.507 411.349 619.507 414.848C619.507 418.347 618.803 421.44 617.395 424.128C616.03 426.773 614.174 428.864 611.827 430.4C609.523 431.893 606.92 432.64 604.019 432.64C602.312 432.64 600.712 432.363 599.219 431.808C597.726 431.253 596.403 430.549 595.251 429.696C594.142 428.843 593.267 427.989 592.627 427.136C592.03 426.24 591.731 425.493 591.731 424.896L593.715 424.064V428.736C593.715 429.845 593.352 430.784 592.627 431.552C591.902 432.277 590.984 432.64 589.875 432.64C588.766 432.64 587.848 432.277 587.123 431.552C586.398 430.827 586.035 429.888 586.035 428.736V388.544C586.035 387.435 586.398 386.517 587.123 385.792C587.848 385.024 588.766 384.64 589.875 384.64C590.984 384.64 591.902 385.024 592.627 385.792C593.352 386.517 593.715 387.435 593.715 388.544V404.8L592.627 404.224C592.627 403.669 592.926 403.008 593.523 402.24C594.12 401.429 594.931 400.64 595.955 399.872C596.979 399.061 598.152 398.4 599.475 397.888C600.84 397.376 602.27 397.12 603.763 397.12ZM602.803 404.16C600.926 404.16 599.283 404.629 597.875 405.568C596.467 406.507 595.358 407.787 594.547 409.408C593.779 410.987 593.395 412.8 593.395 414.848C593.395 416.853 593.779 418.688 594.547 420.352C595.358 421.973 596.467 423.253 597.875 424.192C599.283 425.131 600.926 425.6 602.803 425.6C604.68 425.6 606.302 425.131 607.667 424.192C609.075 423.253 610.163 421.973 610.931 420.352C611.742 418.688 612.147 416.853 612.147 414.848C612.147 412.8 611.742 410.987 610.931 409.408C610.163 407.787 609.075 406.507 607.667 405.568C606.302 404.629 604.68 404.16 602.803 404.16ZM659.439 414.912C659.439 418.411 658.649 421.504 657.071 424.192C655.535 426.837 653.444 428.907 650.799 430.4C648.196 431.893 645.273 432.64 642.031 432.64C638.788 432.64 635.844 431.893 633.199 430.4C630.596 428.907 628.505 426.837 626.927 424.192C625.391 421.504 624.623 418.411 624.623 414.912C624.623 411.413 625.391 408.341 626.927 405.696C628.505 403.008 630.596 400.917 633.199 399.424C635.844 397.888 638.788 397.12 642.031 397.12C645.273 397.12 648.196 397.888 650.799 399.424C653.444 400.917 655.535 403.008 657.071 405.696C658.649 408.341 659.439 411.413 659.439 414.912ZM651.759 414.912C651.759 412.736 651.311 410.859 650.415 409.28C649.561 407.659 648.388 406.4 646.895 405.504C645.444 404.608 643.823 404.16 642.031 404.16C640.239 404.16 638.596 404.608 637.103 405.504C635.652 406.4 634.479 407.659 633.583 409.28C632.729 410.859 632.303 412.736 632.303 414.912C632.303 417.045 632.729 418.923 633.583 420.544C634.479 422.123 635.652 423.36 637.103 424.256C638.596 425.152 640.239 425.6 642.031 425.6C643.823 425.6 645.444 425.152 646.895 424.256C648.388 423.36 649.561 422.123 650.415 420.544C651.311 418.923 651.759 417.045 651.759 414.912ZM699.376 414.912C699.376 418.411 698.587 421.504 697.008 424.192C695.472 426.837 693.381 428.907 690.736 430.4C688.133 431.893 685.211 432.64 681.968 432.64C678.725 432.64 675.781 431.893 673.136 430.4C670.533 428.907 668.443 426.837 666.864 424.192C665.328 421.504 664.56 418.411 664.56 414.912C664.56 411.413 665.328 408.341 666.864 405.696C668.443 403.008 670.533 400.917 673.136 399.424C675.781 397.888 678.725 397.12 681.968 397.12C685.211 397.12 688.133 397.888 690.736 399.424C693.381 400.917 695.472 403.008 697.008 405.696C698.587 408.341 699.376 411.413 699.376 414.912ZM691.696 414.912C691.696 412.736 691.248 410.859 690.352 409.28C689.499 407.659 688.325 406.4 686.832 405.504C685.381 404.608 683.76 404.16 681.968 404.16C680.176 404.16 678.533 404.608 677.04 405.504C675.589 406.4 674.416 407.659 673.52 409.28C672.667 410.859 672.24 412.736 672.24 414.912C672.24 417.045 672.667 418.923 673.52 420.544C674.416 422.123 675.589 423.36 677.04 424.256C678.533 425.152 680.176 425.6 681.968 425.6C683.76 425.6 685.381 425.152 686.832 424.256C688.325 423.36 689.499 422.123 690.352 420.544C691.248 418.923 691.696 417.045 691.696 414.912ZM710.578 432C709.468 432 708.551 431.637 707.826 430.912C707.1 430.144 706.738 429.205 706.738 428.096V388.544C706.738 387.435 707.1 386.517 707.826 385.792C708.551 385.024 709.468 384.64 710.578 384.64C711.687 384.64 712.604 385.024 713.33 385.792C714.055 386.517 714.418 387.435 714.418 388.544V428.096C714.418 429.205 714.055 430.144 713.33 430.912C712.604 431.637 711.687 432 710.578 432ZM730.93 397.76C731.911 397.76 732.764 398.165 733.49 398.976C734.215 399.787 734.578 400.576 734.578 401.344C734.578 402.368 734.066 403.328 733.042 404.224L713.778 421.952L713.458 413.12L728.114 398.976C728.924 398.165 729.863 397.76 730.93 397.76ZM731.89 431.936C730.78 431.936 729.842 431.509 729.074 430.656L717.234 418.112L723.058 412.736L734.578 425.28C735.388 426.133 735.794 427.093 735.794 428.16C735.794 429.269 735.346 430.187 734.45 430.912C733.596 431.595 732.743 431.936 731.89 431.936ZM760.519 397.12C763.932 397.12 766.45 397.952 768.071 399.616C769.692 401.237 770.759 403.349 771.271 405.952L770.183 405.376L770.695 404.352C771.207 403.371 771.996 402.325 773.063 401.216C774.13 400.064 775.41 399.104 776.903 398.336C778.439 397.525 780.146 397.12 782.023 397.12C785.095 397.12 787.42 397.781 788.999 399.104C790.62 400.427 791.73 402.197 792.327 404.416C792.924 406.592 793.223 409.024 793.223 411.712V428.096C793.223 429.205 792.86 430.144 792.135 430.912C791.41 431.637 790.492 432 789.383 432C788.274 432 787.356 431.637 786.631 430.912C785.906 430.144 785.543 429.205 785.543 428.096V411.712C785.543 410.304 785.372 409.045 785.031 407.936C784.69 406.784 784.071 405.867 783.175 405.184C782.279 404.501 780.999 404.16 779.335 404.16C777.714 404.16 776.327 404.501 775.175 405.184C774.023 405.867 773.148 406.784 772.551 407.936C771.996 409.045 771.719 410.304 771.719 411.712V428.096C771.719 429.205 771.356 430.144 770.631 430.912C769.906 431.637 768.988 432 767.879 432C766.77 432 765.852 431.637 765.127 430.912C764.402 430.144 764.039 429.205 764.039 428.096V411.712C764.039 410.304 763.868 409.045 763.527 407.936C763.186 406.784 762.567 405.867 761.671 405.184C760.775 404.501 759.495 404.16 757.831 404.16C756.21 404.16 754.823 404.501 753.671 405.184C752.519 405.867 751.644 406.784 751.047 407.936C750.492 409.045 750.215 410.304 750.215 411.712V428.096C750.215 429.205 749.852 430.144 749.127 430.912C748.402 431.637 747.484 432 746.375 432C745.266 432 744.348 431.637 743.623 430.912C742.898 430.144 742.535 429.205 742.535 428.096V401.664C742.535 400.555 742.898 399.637 743.623 398.912C744.348 398.144 745.266 397.76 746.375 397.76C747.484 397.76 748.402 398.144 749.127 398.912C749.852 399.637 750.215 400.555 750.215 401.664V404.416L749.255 404.224C749.639 403.499 750.172 402.731 750.855 401.92C751.538 401.067 752.37 400.277 753.351 399.552C754.332 398.827 755.42 398.251 756.615 397.824C757.81 397.355 759.111 397.12 760.519 397.12ZM829.567 397.12C830.676 397.12 831.594 397.483 832.319 398.208C833.044 398.933 833.407 399.872 833.407 401.024V428.096C833.407 429.205 833.044 430.144 832.319 430.912C831.594 431.637 830.676 432 829.567 432C828.458 432 827.54 431.637 826.815 430.912C826.09 430.144 825.727 429.205 825.727 428.096V424.96L827.135 425.536C827.135 426.091 826.836 426.773 826.239 427.584C825.642 428.352 824.831 429.12 823.807 429.888C822.783 430.656 821.567 431.317 820.159 431.872C818.794 432.384 817.3 432.64 815.679 432.64C812.735 432.64 810.068 431.893 807.679 430.4C805.29 428.864 803.391 426.773 801.983 424.128C800.618 421.44 799.935 418.368 799.935 414.912C799.935 411.413 800.618 408.341 801.983 405.696C803.391 403.008 805.268 400.917 807.615 399.424C809.962 397.888 812.564 397.12 815.423 397.12C817.258 397.12 818.943 397.397 820.479 397.952C822.015 398.507 823.338 399.211 824.447 400.064C825.599 400.917 826.474 401.792 827.071 402.688C827.711 403.541 828.031 404.267 828.031 404.864L825.727 405.696V401.024C825.727 399.915 826.09 398.997 826.815 398.272C827.54 397.504 828.458 397.12 829.567 397.12ZM816.639 425.6C818.516 425.6 820.159 425.131 821.567 424.192C822.975 423.253 824.063 421.973 824.831 420.352C825.642 418.731 826.047 416.917 826.047 414.912C826.047 412.864 825.642 411.029 824.831 409.408C824.063 407.787 822.975 406.507 821.567 405.568C820.159 404.629 818.516 404.16 816.639 404.16C814.804 404.16 813.183 404.629 811.775 405.568C810.367 406.507 809.258 407.787 808.447 409.408C807.679 411.029 807.295 412.864 807.295 414.912C807.295 416.917 807.679 418.731 808.447 420.352C809.258 421.973 810.367 423.253 811.775 424.192C813.183 425.131 814.804 425.6 816.639 425.6ZM845.562 432C844.453 432 843.536 431.637 842.811 430.912C842.085 430.144 841.723 429.205 841.723 428.096V401.664C841.723 400.555 842.085 399.637 842.811 398.912C843.536 398.144 844.453 397.76 845.562 397.76C846.672 397.76 847.589 398.144 848.315 398.912C849.04 399.637 849.403 400.555 849.403 401.664V407.68L848.955 403.392C849.424 402.368 850.021 401.472 850.747 400.704C851.515 399.893 852.368 399.232 853.307 398.72C854.245 398.165 855.248 397.76 856.315 397.504C857.381 397.248 858.448 397.12 859.515 397.12C860.795 397.12 861.861 397.483 862.715 398.208C863.611 398.933 864.059 399.787 864.059 400.768C864.059 402.176 863.696 403.2 862.971 403.84C862.245 404.437 861.456 404.736 860.603 404.736C859.792 404.736 859.045 404.587 858.363 404.288C857.723 403.989 856.976 403.84 856.123 403.84C855.355 403.84 854.565 404.032 853.755 404.416C852.987 404.757 852.261 405.312 851.579 406.08C850.939 406.848 850.405 407.808 849.979 408.96C849.595 410.069 849.403 411.392 849.403 412.928V428.096C849.403 429.205 849.04 430.144 848.315 430.912C847.589 431.637 846.672 432 845.562 432ZM873.953 432C872.843 432 871.926 431.637 871.201 430.912C870.475 430.144 870.113 429.205 870.113 428.096V388.544C870.113 387.435 870.475 386.517 871.201 385.792C871.926 385.024 872.843 384.64 873.953 384.64C875.062 384.64 875.979 385.024 876.705 385.792C877.43 386.517 877.793 387.435 877.793 388.544V428.096C877.793 429.205 877.43 430.144 876.705 430.912C875.979 431.637 875.062 432 873.953 432ZM894.305 397.76C895.286 397.76 896.139 398.165 896.865 398.976C897.59 399.787 897.953 400.576 897.953 401.344C897.953 402.368 897.441 403.328 896.417 404.224L877.153 421.952L876.833 413.12L891.489 398.976C892.299 398.165 893.238 397.76 894.305 397.76ZM895.265 431.936C894.155 431.936 893.217 431.509 892.449 430.656L880.609 418.112L886.433 412.736L897.953 425.28C898.763 426.133 899.169 427.093 899.169 428.16C899.169 429.269 898.721 430.187 897.825 430.912C896.971 431.595 896.118 431.936 895.265 431.936ZM903.614 426.688C903.187 426.091 902.995 425.323 903.038 424.384C903.08 423.445 903.635 422.635 904.702 421.952C905.384 421.525 906.11 421.355 906.878 421.44C907.646 421.483 908.392 421.867 909.118 422.592C910.355 423.829 911.656 424.789 913.022 425.472C914.387 426.155 916.094 426.496 918.142 426.496C918.782 426.453 919.486 426.368 920.253 426.24C921.022 426.069 921.683 425.728 922.238 425.216C922.835 424.661 923.134 423.829 923.134 422.72C923.134 421.781 922.814 421.035 922.174 420.48C921.534 419.925 920.68 419.456 919.614 419.072C918.59 418.688 917.438 418.325 916.158 417.984C914.835 417.6 913.47 417.173 912.062 416.704C910.696 416.235 909.438 415.637 908.286 414.912C907.134 414.144 906.195 413.141 905.47 411.904C904.744 410.667 904.382 409.109 904.382 407.232C904.382 405.099 904.979 403.285 906.174 401.792C907.368 400.299 908.904 399.147 910.782 398.336C912.702 397.525 914.707 397.12 916.798 397.12C918.12 397.12 919.507 397.291 920.958 397.632C922.408 397.931 923.795 398.443 925.118 399.168C926.44 399.851 927.55 400.768 928.446 401.92C928.915 402.56 929.192 403.328 929.278 404.224C929.363 405.12 928.958 405.931 928.062 406.656C927.422 407.168 926.675 407.403 925.822 407.36C924.968 407.275 924.264 406.976 923.71 406.464C922.984 405.525 922.003 404.779 920.766 404.224C919.571 403.669 918.184 403.392 916.606 403.392C915.966 403.392 915.262 403.477 914.494 403.648C913.768 403.776 913.128 404.096 912.574 404.608C912.019 405.077 911.742 405.845 911.742 406.912C911.742 407.893 912.062 408.683 912.702 409.28C913.342 409.835 914.195 410.304 915.262 410.688C916.371 411.029 917.544 411.371 918.782 411.712C920.062 412.053 921.363 412.459 922.686 412.928C924.008 413.397 925.224 414.016 926.334 414.784C927.443 415.552 928.339 416.555 929.022 417.792C929.704 418.987 930.046 420.523 930.046 422.4C930.046 424.576 929.406 426.432 928.126 427.968C926.846 429.504 925.246 430.677 923.326 431.488C921.406 432.256 919.443 432.64 917.438 432.64C914.92 432.64 912.403 432.213 909.885 431.36C907.368 430.464 905.278 428.907 903.614 426.688ZM108.508 509.376C108.508 510.101 108.252 510.72 107.74 511.232C107.27 511.744 106.673 512 105.948 512C105.18 512 104.561 511.744 104.092 511.232C103.622 510.72 103.388 510.101 103.388 509.376V480.96C103.388 480.235 103.622 479.637 104.092 479.168C104.604 478.656 105.222 478.4 105.948 478.4C106.673 478.4 107.27 478.656 107.74 479.168C108.252 479.637 108.508 480.235 108.508 480.96V509.376ZM105.948 474.112C104.881 474.112 104.092 473.899 103.58 473.472C103.068 473.045 102.812 472.384 102.812 471.488V470.592C102.812 469.696 103.089 469.035 103.644 468.608C104.198 468.181 104.988 467.968 106.012 467.968C107.036 467.968 107.804 468.181 108.316 468.608C108.828 469.035 109.084 469.696 109.084 470.592V471.488C109.084 472.384 108.806 473.045 108.252 473.472C107.74 473.899 106.972 474.112 105.948 474.112ZM134.153 478.08C137.054 478.08 139.337 478.677 141.001 479.872C142.665 481.067 143.838 482.667 144.521 484.672C145.246 486.677 145.609 488.917 145.609 491.392V509.376C145.609 510.101 145.353 510.72 144.841 511.232C144.371 511.744 143.774 512 143.049 512C142.323 512 141.705 511.744 141.193 511.232C140.723 510.72 140.489 510.101 140.489 509.376V491.52C140.489 489.899 140.233 488.448 139.721 487.168C139.251 485.845 138.441 484.8 137.289 484.032C136.179 483.221 134.643 482.816 132.681 482.816C130.889 482.816 129.246 483.221 127.753 484.032C126.259 484.8 125.065 485.845 124.169 487.168C123.273 488.448 122.825 489.899 122.825 491.52V509.376C122.825 510.101 122.569 510.72 122.057 511.232C121.587 511.744 120.99 512 120.265 512C119.539 512 118.921 511.744 118.409 511.232C117.939 510.72 117.705 510.101 117.705 509.376V481.472C117.705 480.747 117.939 480.149 118.409 479.68C118.921 479.168 119.539 478.912 120.265 478.912C121.033 478.912 121.651 479.168 122.121 479.68C122.59 480.149 122.825 480.747 122.825 481.472V486.016L121.545 487.424C121.758 486.315 122.249 485.205 123.017 484.096C123.785 482.944 124.745 481.92 125.897 481.024C127.049 480.128 128.329 479.424 129.737 478.912C131.145 478.357 132.617 478.08 134.153 478.08ZM153.8 479.104H168.84C169.522 479.104 170.077 479.339 170.504 479.808C170.973 480.277 171.208 480.832 171.208 481.472C171.208 482.155 170.973 482.731 170.504 483.2C170.077 483.627 169.522 483.84 168.84 483.84H153.8C153.16 483.84 152.605 483.605 152.136 483.136C151.666 482.667 151.432 482.091 151.432 481.408C151.432 480.768 151.666 480.235 152.136 479.808C152.605 479.339 153.16 479.104 153.8 479.104ZM160.52 470.4C161.245 470.4 161.842 470.656 162.312 471.168C162.781 471.637 163.016 472.235 163.016 472.96V503.872C163.016 504.896 163.165 505.664 163.464 506.176C163.762 506.688 164.146 507.051 164.616 507.264C165.128 507.435 165.618 507.52 166.088 507.52C166.514 507.52 166.877 507.456 167.176 507.328C167.517 507.157 167.901 507.072 168.328 507.072C168.754 507.072 169.138 507.285 169.48 507.712C169.864 508.096 170.056 508.608 170.056 509.248C170.056 510.016 169.608 510.677 168.712 511.232C167.816 511.744 166.813 512 165.704 512C165.106 512 164.36 511.957 163.464 511.872C162.61 511.787 161.757 511.509 160.904 511.04C160.05 510.571 159.325 509.803 158.728 508.736C158.173 507.627 157.896 506.091 157.896 504.128V472.96C157.896 472.235 158.152 471.637 158.664 471.168C159.176 470.656 159.794 470.4 160.52 470.4ZM209.441 495.36C209.441 498.688 208.695 501.653 207.201 504.256C205.751 506.859 203.767 508.907 201.249 510.4C198.775 511.893 195.98 512.64 192.865 512.64C189.751 512.64 186.935 511.893 184.417 510.4C181.9 508.907 179.895 506.859 178.401 504.256C176.951 501.653 176.225 498.688 176.225 495.36C176.225 492.032 176.951 489.067 178.401 486.464C179.895 483.861 181.9 481.813 184.417 480.32C186.935 478.827 189.751 478.08 192.865 478.08C195.98 478.08 198.775 478.827 201.249 480.32C203.767 481.813 205.751 483.861 207.201 486.464C208.695 489.067 209.441 492.032 209.441 495.36ZM204.321 495.36C204.321 492.885 203.809 490.709 202.785 488.832C201.804 486.955 200.439 485.483 198.689 484.416C196.983 483.349 195.041 482.816 192.865 482.816C190.689 482.816 188.727 483.349 186.977 484.416C185.271 485.483 183.905 486.955 182.881 488.832C181.857 490.709 181.345 492.885 181.345 495.36C181.345 497.792 181.857 499.947 182.881 501.824C183.905 503.701 185.271 505.195 186.977 506.304C188.727 507.371 190.689 507.904 192.865 507.904C195.041 507.904 196.983 507.371 198.689 506.304C200.439 505.195 201.804 503.701 202.785 501.824C203.809 499.947 204.321 497.792 204.321 495.36ZM262.031 478.592C262.757 478.592 263.354 478.848 263.823 479.36C264.335 479.829 264.591 480.427 264.591 481.152V509.376C264.591 510.101 264.335 510.72 263.823 511.232C263.354 511.744 262.757 512 262.031 512C261.263 512 260.645 511.744 260.175 511.232C259.706 510.72 259.471 510.101 259.471 509.376V503.296L260.687 503.168C260.687 504.107 260.367 505.131 259.727 506.24C259.087 507.349 258.213 508.395 257.103 509.376C255.994 510.315 254.671 511.104 253.135 511.744C251.642 512.341 250.021 512.64 248.271 512.64C245.37 512.64 242.767 511.893 240.463 510.4C238.159 508.864 236.325 506.795 234.959 504.192C233.637 501.589 232.975 498.624 232.975 495.296C232.975 491.925 233.637 488.96 234.959 486.4C236.325 483.797 238.159 481.771 240.463 480.32C242.767 478.827 245.327 478.08 248.143 478.08C249.978 478.08 251.685 478.379 253.263 478.976C254.842 479.573 256.207 480.384 257.359 481.408C258.554 482.432 259.471 483.563 260.111 484.8C260.794 486.037 261.135 487.275 261.135 488.512L259.471 488.128V481.152C259.471 480.427 259.706 479.829 260.175 479.36C260.645 478.848 261.263 478.592 262.031 478.592ZM248.847 507.904C250.981 507.904 252.858 507.349 254.479 506.24C256.143 505.131 257.423 503.637 258.319 501.76C259.258 499.84 259.727 497.685 259.727 495.296C259.727 492.949 259.258 490.837 258.319 488.96C257.423 487.04 256.143 485.547 254.479 484.48C252.858 483.371 250.981 482.816 248.847 482.816C246.757 482.816 244.879 483.349 243.215 484.416C241.594 485.483 240.314 486.955 239.375 488.832C238.437 490.709 237.967 492.864 237.967 495.296C237.967 497.685 238.415 499.84 239.311 501.76C240.25 503.637 241.53 505.131 243.151 506.24C244.815 507.349 246.714 507.904 248.847 507.904ZM308.025 478.4C310.926 478.4 313.529 479.125 315.833 480.576C318.137 482.027 319.95 484.032 321.273 486.592C322.638 489.152 323.321 492.096 323.321 495.424C323.321 498.709 322.638 501.653 321.273 504.256C319.95 506.816 318.137 508.843 315.833 510.336C313.571 511.787 311.011 512.512 308.153 512.512C306.574 512.512 305.081 512.277 303.673 511.808C302.307 511.296 301.049 510.656 299.897 509.888C298.787 509.077 297.849 508.181 297.081 507.2C296.313 506.176 295.758 505.173 295.417 504.192L296.825 503.296V522.176C296.825 522.901 296.59 523.52 296.121 524.032C295.651 524.544 295.033 524.8 294.265 524.8C293.539 524.8 292.921 524.544 292.409 524.032C291.939 523.563 291.705 522.944 291.705 522.176V481.28C291.705 480.555 291.939 479.957 292.409 479.488C292.921 478.976 293.539 478.72 294.265 478.72C295.033 478.72 295.651 478.976 296.121 479.488C296.59 479.957 296.825 480.555 296.825 481.28V486.976L295.865 486.464C296.163 485.397 296.675 484.373 297.401 483.392C298.169 482.411 299.086 481.557 300.153 480.832C301.262 480.064 302.478 479.467 303.801 479.04C305.166 478.613 306.574 478.4 308.025 478.4ZM307.449 483.136C305.315 483.136 303.417 483.669 301.753 484.736C300.131 485.803 298.851 487.253 297.913 489.088C297.017 490.923 296.569 493.035 296.569 495.424C296.569 497.771 297.017 499.883 297.913 501.76C298.851 503.637 300.131 505.109 301.753 506.176C303.417 507.243 305.315 507.776 307.449 507.776C309.582 507.776 311.459 507.243 313.081 506.176C314.702 505.109 315.982 503.637 316.921 501.76C317.859 499.883 318.329 497.771 318.329 495.424C318.329 493.035 317.859 490.923 316.921 489.088C315.982 487.253 314.702 485.803 313.081 484.736C311.459 483.669 309.582 483.136 307.449 483.136ZM355.785 478.912C356.553 478.912 357.172 479.168 357.641 479.68C358.111 480.149 358.345 480.747 358.345 481.472V498.944C358.345 503.253 357.129 506.603 354.697 508.992C352.308 511.339 348.959 512.512 344.649 512.512C340.383 512.512 337.033 511.339 334.601 508.992C332.212 506.603 331.017 503.253 331.017 498.944V481.472C331.017 480.747 331.252 480.149 331.721 479.68C332.233 479.168 332.852 478.912 333.577 478.912C334.345 478.912 334.964 479.168 335.433 479.68C335.903 480.149 336.137 480.747 336.137 481.472V498.944C336.137 501.845 336.884 504.043 338.377 505.536C339.871 507.029 341.961 507.776 344.649 507.776C347.423 507.776 349.535 507.029 350.985 505.536C352.479 504.043 353.225 501.845 353.225 498.944V481.472C353.225 480.747 353.46 480.149 353.929 479.68C354.441 479.168 355.06 478.912 355.785 478.912ZM384.15 478.08C387.051 478.08 389.654 478.827 391.958 480.32C394.262 481.771 396.075 483.776 397.398 486.336C398.763 488.896 399.446 491.861 399.446 495.232C399.446 498.603 398.763 501.589 397.398 504.192C396.075 506.795 394.262 508.864 391.958 510.4C389.696 511.893 387.136 512.64 384.278 512.64C382.699 512.64 381.206 512.405 379.798 511.936C378.432 511.424 377.174 510.763 376.022 509.952C374.912 509.099 373.974 508.181 373.206 507.2C372.438 506.176 371.883 505.173 371.542 504.192L372.95 503.296V509.696C372.95 510.421 372.715 511.04 372.246 511.552C371.776 512.064 371.158 512.32 370.39 512.32C369.664 512.32 369.046 512.085 368.534 511.616C368.064 511.104 367.83 510.464 367.83 509.696V467.264C367.83 466.539 368.064 465.92 368.534 465.408C369.046 464.896 369.664 464.64 370.39 464.64C371.158 464.64 371.776 464.896 372.246 465.408C372.715 465.92 372.95 466.539 372.95 467.264V486.976L371.99 486.464C372.288 485.397 372.8 484.373 373.526 483.392C374.294 482.368 375.211 481.472 376.278 480.704C377.387 479.893 378.603 479.253 379.926 478.784C381.291 478.315 382.699 478.08 384.15 478.08ZM383.574 482.816C381.44 482.816 379.542 483.349 377.878 484.416C376.256 485.483 374.976 486.955 374.038 488.832C373.142 490.709 372.694 492.843 372.694 495.232C372.694 497.621 373.142 499.776 374.038 501.696C374.976 503.616 376.256 505.131 377.878 506.24C379.542 507.349 381.44 507.904 383.574 507.904C385.707 507.904 387.584 507.349 389.206 506.24C390.827 505.131 392.107 503.616 393.046 501.696C393.984 499.776 394.454 497.621 394.454 495.232C394.454 492.843 393.984 490.709 393.046 488.832C392.107 486.955 390.827 485.483 389.206 484.416C387.584 483.349 385.707 482.816 383.574 482.816ZM412.774 509.376C412.774 510.101 412.518 510.72 412.006 511.232C411.494 511.744 410.876 512 410.15 512C409.425 512 408.828 511.744 408.358 511.232C407.889 510.72 407.654 510.101 407.654 509.376V467.2C407.654 466.475 407.889 465.877 408.358 465.408C408.87 464.896 409.489 464.64 410.214 464.64C410.982 464.64 411.601 464.896 412.07 465.408C412.54 465.877 412.774 466.475 412.774 467.2V509.376ZM427.633 509.376C427.633 510.101 427.377 510.72 426.865 511.232C426.395 511.744 425.798 512 425.073 512C424.305 512 423.686 511.744 423.217 511.232C422.747 510.72 422.513 510.101 422.513 509.376V480.96C422.513 480.235 422.747 479.637 423.217 479.168C423.729 478.656 424.347 478.4 425.073 478.4C425.798 478.4 426.395 478.656 426.865 479.168C427.377 479.637 427.633 480.235 427.633 480.96V509.376ZM425.073 474.112C424.006 474.112 423.217 473.899 422.705 473.472C422.193 473.045 421.937 472.384 421.937 471.488V470.592C421.937 469.696 422.214 469.035 422.769 468.608C423.323 468.181 424.113 467.968 425.137 467.968C426.161 467.968 426.929 468.181 427.441 468.608C427.953 469.035 428.209 469.696 428.209 470.592V471.488C428.209 472.384 427.931 473.045 427.377 473.472C426.865 473.899 426.097 474.112 425.073 474.112ZM451.55 478.08C453.726 478.08 455.688 478.315 457.438 478.784C459.187 479.253 460.574 479.893 461.598 480.704C462.622 481.515 463.134 482.432 463.134 483.456C463.134 484.011 462.942 484.544 462.558 485.056C462.174 485.568 461.662 485.824 461.022 485.824C460.424 485.824 459.934 485.717 459.55 485.504C459.208 485.291 458.867 485.013 458.526 484.672C458.227 484.331 457.8 484.032 457.246 483.776C456.734 483.477 455.987 483.243 455.006 483.072C454.024 482.901 453.043 482.816 452.062 482.816C449.715 482.816 447.646 483.371 445.854 484.48C444.104 485.589 442.718 487.083 441.694 488.96C440.67 490.837 440.158 492.971 440.158 495.36C440.158 497.749 440.648 499.883 441.63 501.76C442.611 503.637 443.976 505.131 445.726 506.24C447.475 507.349 449.502 507.904 451.806 507.904C453.299 507.904 454.494 507.776 455.39 507.52C456.286 507.264 457.032 506.965 457.63 506.624C458.398 506.197 458.974 505.771 459.358 505.344C459.784 504.917 460.339 504.704 461.022 504.704C461.747 504.704 462.302 504.939 462.686 505.408C463.112 505.877 463.326 506.453 463.326 507.136C463.326 507.904 462.792 508.715 461.726 509.568C460.659 510.421 459.208 511.147 457.374 511.744C455.582 512.341 453.534 512.64 451.23 512.64C447.987 512.64 445.15 511.893 442.718 510.4C440.286 508.864 438.387 506.795 437.022 504.192C435.699 501.547 435.038 498.603 435.038 495.36C435.038 492.117 435.72 489.195 437.086 486.592C438.494 483.989 440.435 481.92 442.91 480.384C445.384 478.848 448.264 478.08 451.55 478.08ZM514.906 464.64C515.632 464.64 516.229 464.896 516.698 465.408C517.21 465.877 517.466 466.475 517.466 467.2V509.376C517.466 510.101 517.21 510.72 516.698 511.232C516.229 511.744 515.632 512 514.906 512C514.138 512 513.52 511.744 513.05 511.232C512.581 510.72 512.346 510.101 512.346 509.376V503.296L513.562 502.848C513.562 503.872 513.242 504.96 512.602 506.112C511.962 507.221 511.088 508.267 509.978 509.248C508.869 510.229 507.546 511.04 506.01 511.68C504.517 512.32 502.896 512.64 501.146 512.64C498.288 512.64 495.685 511.893 493.338 510.4C491.034 508.907 489.2 506.859 487.834 504.256C486.512 501.653 485.85 498.688 485.85 495.36C485.85 491.989 486.512 489.003 487.834 486.4C489.2 483.797 491.034 481.771 493.338 480.32C495.642 478.827 498.202 478.08 501.018 478.08C502.81 478.08 504.496 478.379 506.074 478.976C507.653 479.573 509.018 480.384 510.17 481.408C511.365 482.432 512.304 483.563 512.986 484.8C513.669 486.037 514.01 487.275 514.01 488.512L512.346 488.128V467.2C512.346 466.475 512.581 465.877 513.05 465.408C513.52 464.896 514.138 464.64 514.906 464.64ZM501.722 507.904C503.856 507.904 505.733 507.371 507.354 506.304C509.018 505.195 510.298 503.701 511.194 501.824C512.133 499.904 512.602 497.749 512.602 495.36C512.602 492.928 512.133 490.773 511.194 488.896C510.298 487.019 509.018 485.547 507.354 484.48C505.733 483.371 503.856 482.816 501.722 482.816C499.632 482.816 497.754 483.371 496.09 484.48C494.469 485.547 493.189 487.019 492.25 488.896C491.312 490.773 490.842 492.928 490.842 495.36C490.842 497.707 491.312 499.84 492.25 501.76C493.189 503.637 494.469 505.131 496.09 506.24C497.754 507.349 499.632 507.904 501.722 507.904ZM531.883 509.376C531.883 510.101 531.627 510.72 531.115 511.232C530.645 511.744 530.048 512 529.323 512C528.555 512 527.936 511.744 527.467 511.232C526.997 510.72 526.763 510.101 526.763 509.376V480.96C526.763 480.235 526.997 479.637 527.467 479.168C527.979 478.656 528.597 478.4 529.323 478.4C530.048 478.4 530.645 478.656 531.115 479.168C531.627 479.637 531.883 480.235 531.883 480.96V509.376ZM529.323 474.112C528.256 474.112 527.467 473.899 526.955 473.472C526.443 473.045 526.187 472.384 526.187 471.488V470.592C526.187 469.696 526.464 469.035 527.019 468.608C527.573 468.181 528.363 467.968 529.387 467.968C530.411 467.968 531.179 468.181 531.691 468.608C532.203 469.035 532.459 469.696 532.459 470.592V471.488C532.459 472.384 532.181 473.045 531.627 473.472C531.115 473.899 530.347 474.112 529.323 474.112ZM543.64 512C542.914 512 542.296 511.744 541.784 511.232C541.314 510.72 541.08 510.101 541.08 509.376V481.472C541.08 480.747 541.314 480.149 541.784 479.68C542.296 479.168 542.914 478.912 543.64 478.912C544.408 478.912 545.026 479.168 545.496 479.68C545.965 480.149 546.2 480.747 546.2 481.472V489.92L545.432 488.576C545.688 487.253 546.136 485.973 546.776 484.736C547.458 483.456 548.312 482.325 549.336 481.344C550.36 480.32 551.533 479.531 552.856 478.976C554.178 478.379 555.629 478.08 557.208 478.08C558.146 478.08 559 478.315 559.768 478.784C560.578 479.211 560.984 479.829 560.984 480.64C560.984 481.536 560.749 482.197 560.28 482.624C559.81 483.051 559.277 483.264 558.68 483.264C558.125 483.264 557.592 483.157 557.08 482.944C556.568 482.688 555.928 482.56 555.16 482.56C554.093 482.56 553.026 482.859 551.96 483.456C550.936 484.011 549.976 484.821 549.08 485.888C548.226 486.955 547.522 488.171 546.968 489.536C546.456 490.859 546.2 492.288 546.2 493.824V509.376C546.2 510.101 545.944 510.72 545.432 511.232C544.962 511.744 544.365 512 543.64 512ZM580.626 512.64C577.212 512.64 574.226 511.915 571.666 510.464C569.106 509.013 567.1 507.029 565.65 504.512C564.242 501.952 563.538 499.008 563.538 495.68C563.538 491.968 564.263 488.811 565.714 486.208C567.207 483.563 569.127 481.557 571.474 480.192C573.863 478.784 576.38 478.08 579.026 478.08C580.988 478.08 582.887 478.443 584.722 479.168C586.556 479.893 588.178 480.96 589.586 482.368C590.994 483.733 592.124 485.397 592.978 487.36C593.831 489.28 594.279 491.435 594.322 493.824C594.322 494.507 594.066 495.083 593.554 495.552C593.042 496.021 592.444 496.256 591.762 496.256H566.482L565.33 491.84H589.97L588.946 492.736V491.328C588.775 489.579 588.178 488.085 587.154 486.848C586.172 485.568 584.956 484.587 583.506 483.904C582.098 483.221 580.604 482.88 579.026 482.88C577.746 482.88 576.466 483.115 575.186 483.584C573.948 484.011 572.818 484.736 571.794 485.76C570.812 486.741 570.002 488.021 569.362 489.6C568.764 491.179 568.466 493.077 568.466 495.296C568.466 497.771 568.956 499.947 569.938 501.824C570.962 503.701 572.37 505.195 574.162 506.304C575.954 507.371 578.044 507.904 580.434 507.904C581.927 507.904 583.228 507.712 584.338 507.328C585.447 506.944 586.407 506.475 587.218 505.92C588.028 505.323 588.711 504.725 589.266 504.128C589.82 503.744 590.354 503.552 590.866 503.552C591.506 503.552 592.018 503.765 592.402 504.192C592.828 504.619 593.042 505.131 593.042 505.728C593.042 506.453 592.7 507.093 592.018 507.648C590.823 508.971 589.202 510.144 587.154 511.168C585.106 512.149 582.93 512.64 580.626 512.64ZM616.737 478.08C618.913 478.08 620.876 478.315 622.625 478.784C624.375 479.253 625.761 479.893 626.785 480.704C627.809 481.515 628.321 482.432 628.321 483.456C628.321 484.011 628.129 484.544 627.745 485.056C627.361 485.568 626.849 485.824 626.209 485.824C625.612 485.824 625.121 485.717 624.737 485.504C624.396 485.291 624.055 485.013 623.713 484.672C623.415 484.331 622.988 484.032 622.433 483.776C621.921 483.477 621.175 483.243 620.193 483.072C619.212 482.901 618.231 482.816 617.249 482.816C614.903 482.816 612.833 483.371 611.041 484.48C609.292 485.589 607.905 487.083 606.881 488.96C605.857 490.837 605.345 492.971 605.345 495.36C605.345 497.749 605.836 499.883 606.817 501.76C607.799 503.637 609.164 505.131 610.913 506.24C612.663 507.349 614.689 507.904 616.993 507.904C618.487 507.904 619.681 507.776 620.577 507.52C621.473 507.264 622.22 506.965 622.817 506.624C623.585 506.197 624.161 505.771 624.545 505.344C624.972 504.917 625.527 504.704 626.209 504.704C626.935 504.704 627.489 504.939 627.873 505.408C628.3 505.877 628.513 506.453 628.513 507.136C628.513 507.904 627.98 508.715 626.913 509.568C625.847 510.421 624.396 511.147 622.561 511.744C620.769 512.341 618.721 512.64 616.417 512.64C613.175 512.64 610.337 511.893 607.905 510.4C605.473 508.864 603.575 506.795 602.209 504.192C600.887 501.547 600.225 498.603 600.225 495.36C600.225 492.117 600.908 489.195 602.273 486.592C603.681 483.989 605.623 481.92 608.097 480.384C610.572 478.848 613.452 478.08 616.737 478.08ZM633.925 479.104H648.965C649.647 479.104 650.202 479.339 650.629 479.808C651.098 480.277 651.333 480.832 651.333 481.472C651.333 482.155 651.098 482.731 650.629 483.2C650.202 483.627 649.647 483.84 648.965 483.84H633.925C633.285 483.84 632.73 483.605 632.261 483.136C631.791 482.667 631.557 482.091 631.557 481.408C631.557 480.768 631.791 480.235 632.261 479.808C632.73 479.339 633.285 479.104 633.925 479.104ZM640.645 470.4C641.37 470.4 641.967 470.656 642.437 471.168C642.906 471.637 643.141 472.235 643.141 472.96V503.872C643.141 504.896 643.29 505.664 643.589 506.176C643.887 506.688 644.271 507.051 644.741 507.264C645.253 507.435 645.743 507.52 646.213 507.52C646.639 507.52 647.002 507.456 647.301 507.328C647.642 507.157 648.026 507.072 648.453 507.072C648.879 507.072 649.263 507.285 649.605 507.712C649.989 508.096 650.181 508.608 650.181 509.248C650.181 510.016 649.733 510.677 648.837 511.232C647.941 511.744 646.938 512 645.829 512C645.231 512 644.485 511.957 643.589 511.872C642.735 511.787 641.882 511.509 641.029 511.04C640.175 510.571 639.45 509.803 638.853 508.736C638.298 507.627 638.021 506.091 638.021 504.128V472.96C638.021 472.235 638.277 471.637 638.789 471.168C639.301 470.656 639.919 470.4 640.645 470.4ZM689.566 495.36C689.566 498.688 688.82 501.653 687.326 504.256C685.876 506.859 683.892 508.907 681.374 510.4C678.9 511.893 676.105 512.64 672.99 512.64C669.876 512.64 667.06 511.893 664.542 510.4C662.025 508.907 660.02 506.859 658.526 504.256C657.076 501.653 656.35 498.688 656.35 495.36C656.35 492.032 657.076 489.067 658.526 486.464C660.02 483.861 662.025 481.813 664.542 480.32C667.06 478.827 669.876 478.08 672.99 478.08C676.105 478.08 678.9 478.827 681.374 480.32C683.892 481.813 685.876 483.861 687.326 486.464C688.82 489.067 689.566 492.032 689.566 495.36ZM684.446 495.36C684.446 492.885 683.934 490.709 682.91 488.832C681.929 486.955 680.564 485.483 678.814 484.416C677.108 483.349 675.166 482.816 672.99 482.816C670.814 482.816 668.852 483.349 667.102 484.416C665.396 485.483 664.03 486.955 663.006 488.832C661.982 490.709 661.47 492.885 661.47 495.36C661.47 497.792 661.982 499.947 663.006 501.824C664.03 503.701 665.396 505.195 667.102 506.304C668.852 507.371 670.814 507.904 672.99 507.904C675.166 507.904 677.108 507.371 678.814 506.304C680.564 505.195 681.929 503.701 682.91 501.824C683.934 499.947 684.446 497.792 684.446 495.36ZM699.827 512C699.102 512 698.483 511.744 697.971 511.232C697.502 510.72 697.267 510.101 697.267 509.376V481.472C697.267 480.747 697.502 480.149 697.971 479.68C698.483 479.168 699.102 478.912 699.827 478.912C700.595 478.912 701.214 479.168 701.683 479.68C702.153 480.149 702.387 480.747 702.387 481.472V489.92L701.619 488.576C701.875 487.253 702.323 485.973 702.963 484.736C703.646 483.456 704.499 482.325 705.523 481.344C706.547 480.32 707.721 479.531 709.043 478.976C710.366 478.379 711.817 478.08 713.395 478.08C714.334 478.08 715.187 478.315 715.955 478.784C716.766 479.211 717.171 479.829 717.171 480.64C717.171 481.536 716.937 482.197 716.467 482.624C715.998 483.051 715.465 483.264 714.867 483.264C714.313 483.264 713.779 483.157 713.267 482.944C712.755 482.688 712.115 482.56 711.347 482.56C710.281 482.56 709.214 482.859 708.147 483.456C707.123 484.011 706.163 484.821 705.267 485.888C704.414 486.955 703.71 488.171 703.155 489.536C702.643 490.859 702.387 492.288 702.387 493.824V509.376C702.387 510.101 702.131 510.72 701.619 511.232C701.15 511.744 700.553 512 699.827 512ZM747.723 478.4C748.448 478.4 749.045 478.656 749.515 479.168C750.027 479.637 750.283 480.235 750.283 480.96V508.864C750.283 512.448 749.579 515.413 748.171 517.76C746.763 520.149 744.864 521.92 742.475 523.072C740.128 524.224 737.461 524.8 734.475 524.8C732.811 524.8 731.211 524.629 729.675 524.288C728.139 523.947 726.88 523.499 725.899 522.944C725.088 522.56 724.512 522.069 724.171 521.472C723.872 520.917 723.829 520.32 724.043 519.68C724.341 518.912 724.768 518.379 725.323 518.08C725.92 517.781 726.539 517.781 727.179 518.08C727.861 518.379 728.843 518.784 730.123 519.296C731.445 519.851 732.917 520.128 734.539 520.128C736.757 520.128 738.656 519.701 740.235 518.848C741.813 517.995 743.029 516.736 743.883 515.072C744.736 513.451 745.163 511.424 745.163 508.992V504.448L745.931 506.048C745.248 507.371 744.331 508.523 743.179 509.504C742.027 510.485 740.704 511.253 739.211 511.808C737.717 512.363 736.075 512.64 734.283 512.64C731.851 512.64 729.781 512.128 728.075 511.104C726.411 510.037 725.131 508.587 724.235 506.752C723.381 504.875 722.955 502.72 722.955 500.288V480.96C722.955 480.235 723.189 479.637 723.659 479.168C724.171 478.656 724.789 478.4 725.515 478.4C726.283 478.4 726.901 478.656 727.371 479.168C727.84 479.637 728.075 480.235 728.075 480.96V499.136C728.075 502.037 728.715 504.235 729.995 505.728C731.275 507.179 733.259 507.904 735.947 507.904C737.653 507.904 739.189 507.52 740.555 506.752C741.963 505.984 743.072 504.939 743.883 503.616C744.736 502.251 745.163 500.757 745.163 499.136V480.96C745.163 480.235 745.397 479.637 745.867 479.168C746.336 478.656 746.955 478.4 747.723 478.4ZM782.32 509.376C782.32 510.101 782.064 510.72 781.552 511.232C781.083 511.744 780.486 512 779.76 512C778.992 512 778.374 511.744 777.904 511.232C777.435 510.72 777.2 510.101 777.2 509.376V480.96C777.2 480.235 777.435 479.637 777.904 479.168C778.416 478.656 779.035 478.4 779.76 478.4C780.486 478.4 781.083 478.656 781.552 479.168C782.064 479.637 782.32 480.235 782.32 480.96V509.376ZM779.76 474.112C778.694 474.112 777.904 473.899 777.392 473.472C776.88 473.045 776.624 472.384 776.624 471.488V470.592C776.624 469.696 776.902 469.035 777.456 468.608C778.011 468.181 778.8 467.968 779.824 467.968C780.848 467.968 781.616 468.181 782.128 468.608C782.64 469.035 782.896 469.696 782.896 470.592V471.488C782.896 472.384 782.619 473.045 782.064 473.472C781.552 473.899 780.784 474.112 779.76 474.112ZM807.965 478.08C810.867 478.08 813.149 478.677 814.813 479.872C816.477 481.067 817.651 482.667 818.333 484.672C819.059 486.677 819.421 488.917 819.421 491.392V509.376C819.421 510.101 819.165 510.72 818.653 511.232C818.184 511.744 817.587 512 816.861 512C816.136 512 815.517 511.744 815.005 511.232C814.536 510.72 814.301 510.101 814.301 509.376V491.52C814.301 489.899 814.045 488.448 813.533 487.168C813.064 485.845 812.253 484.8 811.101 484.032C809.992 483.221 808.456 482.816 806.493 482.816C804.701 482.816 803.059 483.221 801.565 484.032C800.072 484.8 798.877 485.845 797.981 487.168C797.085 488.448 796.637 489.899 796.637 491.52V509.376C796.637 510.101 796.381 510.72 795.869 511.232C795.4 511.744 794.803 512 794.077 512C793.352 512 792.733 511.744 792.221 511.232C791.752 510.72 791.517 510.101 791.517 509.376V481.472C791.517 480.747 791.752 480.149 792.221 479.68C792.733 479.168 793.352 478.912 794.077 478.912C794.845 478.912 795.464 479.168 795.933 479.68C796.403 480.149 796.637 480.747 796.637 481.472V486.016L795.357 487.424C795.571 486.315 796.061 485.205 796.829 484.096C797.597 482.944 798.557 481.92 799.709 481.024C800.861 480.128 802.141 479.424 803.549 478.912C804.957 478.357 806.429 478.08 807.965 478.08ZM844.661 506.752C844.277 506.197 844.107 505.621 844.149 505.024C844.192 504.384 844.555 503.829 845.237 503.36C845.664 503.061 846.155 502.933 846.709 502.976C847.307 503.019 847.84 503.296 848.309 503.808C849.504 505.216 850.869 506.347 852.405 507.2C853.941 508.011 855.819 508.416 858.037 508.416C859.061 508.373 860.085 508.203 861.109 507.904C862.133 507.605 862.987 507.093 863.669 506.368C864.395 505.6 864.757 504.597 864.757 503.36C864.757 502.165 864.395 501.227 863.669 500.544C862.944 499.819 862.005 499.243 860.853 498.816C859.701 498.347 858.443 497.941 857.077 497.6C855.669 497.216 854.283 496.789 852.917 496.32C851.552 495.808 850.315 495.189 849.205 494.464C848.139 493.696 847.264 492.757 846.581 491.648C845.941 490.496 845.621 489.109 845.621 487.488C845.621 485.568 846.133 483.904 847.157 482.496C848.224 481.088 849.632 480 851.381 479.232C853.173 478.464 855.115 478.08 857.205 478.08C858.4 478.08 859.637 478.229 860.917 478.528C862.24 478.784 863.52 479.253 864.757 479.936C865.995 480.576 867.083 481.472 868.021 482.624C868.405 483.051 868.619 483.584 868.661 484.224C868.704 484.864 868.427 485.44 867.829 485.952C867.36 486.293 866.827 486.443 866.229 486.4C865.675 486.357 865.205 486.144 864.821 485.76C863.925 484.693 862.795 483.883 861.429 483.328C860.107 482.731 858.635 482.432 857.013 482.432C855.989 482.432 854.987 482.581 854.005 482.88C853.024 483.179 852.192 483.691 851.509 484.416C850.869 485.099 850.549 486.059 850.549 487.296C850.592 488.448 850.976 489.387 851.701 490.112C852.427 490.837 853.408 491.435 854.645 491.904C855.883 492.331 857.248 492.757 858.741 493.184C860.107 493.525 861.408 493.931 862.645 494.4C863.925 494.827 865.077 495.403 866.101 496.128C867.125 496.853 867.936 497.792 868.533 498.944C869.131 500.053 869.429 501.461 869.429 503.168C869.429 505.131 868.875 506.837 867.765 508.288C866.656 509.696 865.184 510.784 863.349 511.552C861.557 512.277 859.616 512.64 857.525 512.64C855.179 512.64 852.853 512.192 850.549 511.296C848.288 510.4 846.325 508.885 844.661 506.752ZM892.126 512.64C888.712 512.64 885.726 511.915 883.166 510.464C880.606 509.013 878.6 507.029 877.15 504.512C875.742 501.952 875.038 499.008 875.038 495.68C875.038 491.968 875.763 488.811 877.214 486.208C878.707 483.563 880.627 481.557 882.974 480.192C885.363 478.784 887.88 478.08 890.526 478.08C892.488 478.08 894.387 478.443 896.222 479.168C898.056 479.893 899.678 480.96 901.086 482.368C902.494 483.733 903.624 485.397 904.478 487.36C905.331 489.28 905.779 491.435 905.822 493.824C905.822 494.507 905.566 495.083 905.054 495.552C904.542 496.021 903.944 496.256 903.262 496.256H877.982L876.83 491.84H901.47L900.446 492.736V491.328C900.275 489.579 899.678 488.085 898.654 486.848C897.672 485.568 896.456 484.587 895.006 483.904C893.598 483.221 892.104 482.88 890.526 482.88C889.246 482.88 887.966 483.115 886.686 483.584C885.448 484.011 884.318 484.736 883.294 485.76C882.312 486.741 881.502 488.021 880.862 489.6C880.264 491.179 879.966 493.077 879.966 495.296C879.966 497.771 880.456 499.947 881.438 501.824C882.462 503.701 883.87 505.195 885.662 506.304C887.454 507.371 889.544 507.904 891.934 507.904C893.427 507.904 894.728 507.712 895.838 507.328C896.947 506.944 897.907 506.475 898.718 505.92C899.528 505.323 900.211 504.725 900.766 504.128C901.32 503.744 901.854 503.552 902.366 503.552C903.006 503.552 903.518 503.765 903.902 504.192C904.328 504.619 904.542 505.131 904.542 505.728C904.542 506.453 904.2 507.093 903.518 507.648C902.323 508.971 900.702 510.144 898.654 511.168C896.606 512.149 894.43 512.64 892.126 512.64ZM928.237 478.08C930.413 478.08 932.376 478.315 934.125 478.784C935.875 479.253 937.261 479.893 938.285 480.704C939.309 481.515 939.821 482.432 939.821 483.456C939.821 484.011 939.629 484.544 939.245 485.056C938.861 485.568 938.349 485.824 937.709 485.824C937.112 485.824 936.621 485.717 936.237 485.504C935.896 485.291 935.555 485.013 935.213 484.672C934.915 484.331 934.488 484.032 933.933 483.776C933.421 483.477 932.675 483.243 931.693 483.072C930.712 482.901 929.731 482.816 928.749 482.816C926.403 482.816 924.333 483.371 922.541 484.48C920.792 485.589 919.405 487.083 918.381 488.96C917.357 490.837 916.845 492.971 916.845 495.36C916.845 497.749 917.336 499.883 918.317 501.76C919.299 503.637 920.664 505.131 922.413 506.24C924.163 507.349 926.189 507.904 928.493 507.904C929.987 507.904 931.181 507.776 932.077 507.52C932.973 507.264 933.72 506.965 934.317 506.624C935.085 506.197 935.661 505.771 936.045 505.344C936.472 504.917 937.027 504.704 937.709 504.704C938.435 504.704 938.989 504.939 939.373 505.408C939.8 505.877 940.013 506.453 940.013 507.136C940.013 507.904 939.48 508.715 938.413 509.568C937.347 510.421 935.896 511.147 934.061 511.744C932.269 512.341 930.221 512.64 927.917 512.64C924.675 512.64 921.837 511.893 919.405 510.4C916.973 508.864 915.075 506.795 913.709 504.192C912.387 501.547 911.725 498.603 911.725 495.36C911.725 492.117 912.408 489.195 913.773 486.592C915.181 483.989 917.123 481.92 919.597 480.384C922.072 478.848 924.952 478.08 928.237 478.08ZM978.129 495.36C978.129 498.688 977.382 501.653 975.889 504.256C974.438 506.859 972.454 508.907 969.937 510.4C967.462 511.893 964.667 512.64 961.553 512.64C958.438 512.64 955.622 511.893 953.105 510.4C950.587 508.907 948.582 506.859 947.089 504.256C945.638 501.653 944.913 498.688 944.913 495.36C944.913 492.032 945.638 489.067 947.089 486.464C948.582 483.861 950.587 481.813 953.105 480.32C955.622 478.827 958.438 478.08 961.553 478.08C964.667 478.08 967.462 478.827 969.937 480.32C972.454 481.813 974.438 483.861 975.889 486.464C977.382 489.067 978.129 492.032 978.129 495.36ZM973.009 495.36C973.009 492.885 972.497 490.709 971.473 488.832C970.491 486.955 969.126 485.483 967.377 484.416C965.67 483.349 963.729 482.816 961.553 482.816C959.377 482.816 957.414 483.349 955.665 484.416C953.958 485.483 952.593 486.955 951.569 488.832C950.545 490.709 950.033 492.885 950.033 495.36C950.033 497.792 950.545 499.947 951.569 501.824C952.593 503.701 953.958 505.195 955.665 506.304C957.414 507.371 959.377 507.904 961.553 507.904C963.729 507.904 965.67 507.371 967.377 506.304C969.126 505.195 970.491 503.701 971.473 501.824C972.497 499.947 973.009 497.792 973.009 495.36ZM1002.28 478.08C1005.18 478.08 1007.46 478.677 1009.13 479.872C1010.79 481.067 1011.96 482.667 1012.65 484.672C1013.37 486.677 1013.73 488.917 1013.73 491.392V509.376C1013.73 510.101 1013.48 510.72 1012.97 511.232C1012.5 511.744 1011.9 512 1011.17 512C1010.45 512 1009.83 511.744 1009.32 511.232C1008.85 510.72 1008.61 510.101 1008.61 509.376V491.52C1008.61 489.899 1008.36 488.448 1007.85 487.168C1007.38 485.845 1006.57 484.8 1005.41 484.032C1004.3 483.221 1002.77 482.816 1000.81 482.816C999.014 482.816 997.371 483.221 995.878 484.032C994.384 484.8 993.19 485.845 992.294 487.168C991.398 488.448 990.95 489.899 990.95 491.52V509.376C990.95 510.101 990.694 510.72 990.182 511.232C989.712 511.744 989.115 512 988.39 512C987.664 512 987.046 511.744 986.534 511.232C986.064 510.72 985.83 510.101 985.83 509.376V481.472C985.83 480.747 986.064 480.149 986.534 479.68C987.046 479.168 987.664 478.912 988.39 478.912C989.158 478.912 989.776 479.168 990.246 479.68C990.715 480.149 990.95 480.747 990.95 481.472V486.016L989.67 487.424C989.883 486.315 990.374 485.205 991.142 484.096C991.91 482.944 992.87 481.92 994.022 481.024C995.174 480.128 996.454 479.424 997.862 478.912C999.27 478.357 1000.74 478.08 1002.28 478.08ZM1050.47 464.64C1051.19 464.64 1051.79 464.896 1052.26 465.408C1052.77 465.877 1053.03 466.475 1053.03 467.2V509.376C1053.03 510.101 1052.77 510.72 1052.26 511.232C1051.79 511.744 1051.19 512 1050.47 512C1049.7 512 1049.08 511.744 1048.61 511.232C1048.14 510.72 1047.91 510.101 1047.91 509.376V503.296L1049.12 502.848C1049.12 503.872 1048.8 504.96 1048.16 506.112C1047.52 507.221 1046.65 508.267 1045.54 509.248C1044.43 510.229 1043.11 511.04 1041.57 511.68C1040.08 512.32 1038.46 512.64 1036.71 512.64C1033.85 512.64 1031.25 511.893 1028.9 510.4C1026.6 508.907 1024.76 506.859 1023.4 504.256C1022.07 501.653 1021.41 498.688 1021.41 495.36C1021.41 491.989 1022.07 489.003 1023.4 486.4C1024.76 483.797 1026.6 481.771 1028.9 480.32C1031.2 478.827 1033.76 478.08 1036.58 478.08C1038.37 478.08 1040.06 478.379 1041.64 478.976C1043.22 479.573 1044.58 480.384 1045.73 481.408C1046.93 482.432 1047.87 483.563 1048.55 484.8C1049.23 486.037 1049.57 487.275 1049.57 488.512L1047.91 488.128V467.2C1047.91 466.475 1048.14 465.877 1048.61 465.408C1049.08 464.896 1049.7 464.64 1050.47 464.64ZM1037.28 507.904C1039.42 507.904 1041.3 507.371 1042.92 506.304C1044.58 505.195 1045.86 503.701 1046.76 501.824C1047.7 499.904 1048.16 497.749 1048.16 495.36C1048.16 492.928 1047.7 490.773 1046.76 488.896C1045.86 487.019 1044.58 485.547 1042.92 484.48C1041.3 483.371 1039.42 482.816 1037.28 482.816C1035.19 482.816 1033.32 483.371 1031.65 484.48C1030.03 485.547 1028.75 487.019 1027.81 488.896C1026.87 490.773 1026.4 492.928 1026.4 495.36C1026.4 497.707 1026.87 499.84 1027.81 501.76C1028.75 503.637 1030.03 505.131 1031.65 506.24C1033.32 507.349 1035.19 507.904 1037.28 507.904ZM1060.66 506.752C1060.28 506.197 1060.11 505.621 1060.15 505.024C1060.19 504.384 1060.55 503.829 1061.24 503.36C1061.66 503.061 1062.15 502.933 1062.71 502.976C1063.31 503.019 1063.84 503.296 1064.31 503.808C1065.5 505.216 1066.87 506.347 1068.41 507.2C1069.94 508.011 1071.82 508.416 1074.04 508.416C1075.06 508.373 1076.09 508.203 1077.11 507.904C1078.13 507.605 1078.99 507.093 1079.67 506.368C1080.39 505.6 1080.76 504.597 1080.76 503.36C1080.76 502.165 1080.39 501.227 1079.67 500.544C1078.94 499.819 1078.01 499.243 1076.85 498.816C1075.7 498.347 1074.44 497.941 1073.08 497.6C1071.67 497.216 1070.28 496.789 1068.92 496.32C1067.55 495.808 1066.31 495.189 1065.21 494.464C1064.14 493.696 1063.26 492.757 1062.58 491.648C1061.94 490.496 1061.62 489.109 1061.62 487.488C1061.62 485.568 1062.13 483.904 1063.16 482.496C1064.22 481.088 1065.63 480 1067.38 479.232C1069.17 478.464 1071.11 478.08 1073.21 478.08C1074.4 478.08 1075.64 478.229 1076.92 478.528C1078.24 478.784 1079.52 479.253 1080.76 479.936C1081.99 480.576 1083.08 481.472 1084.02 482.624C1084.41 483.051 1084.62 483.584 1084.66 484.224C1084.7 484.864 1084.43 485.44 1083.83 485.952C1083.36 486.293 1082.83 486.443 1082.23 486.4C1081.67 486.357 1081.21 486.144 1080.82 485.76C1079.93 484.693 1078.79 483.883 1077.43 483.328C1076.11 482.731 1074.63 482.432 1073.01 482.432C1071.99 482.432 1070.99 482.581 1070.01 482.88C1069.02 483.179 1068.19 483.691 1067.51 484.416C1066.87 485.099 1066.55 486.059 1066.55 487.296C1066.59 488.448 1066.98 489.387 1067.7 490.112C1068.43 490.837 1069.41 491.435 1070.65 491.904C1071.88 492.331 1073.25 492.757 1074.74 493.184C1076.11 493.525 1077.41 493.931 1078.65 494.4C1079.93 494.827 1081.08 495.403 1082.1 496.128C1083.13 496.853 1083.94 497.792 1084.53 498.944C1085.13 500.053 1085.43 501.461 1085.43 503.168C1085.43 505.131 1084.87 506.837 1083.77 508.288C1082.66 509.696 1081.18 510.784 1079.35 511.552C1077.56 512.277 1075.62 512.64 1073.53 512.64C1071.18 512.64 1068.85 512.192 1066.55 511.296C1064.29 510.4 1062.33 508.885 1060.66 506.752ZM1094.37 511.936C1093.47 511.936 1092.77 511.68 1092.25 511.168C1091.78 510.656 1091.55 509.952 1091.55 509.056V507.776C1091.55 506.837 1091.78 506.112 1092.25 505.6C1092.77 505.088 1093.47 504.832 1094.37 504.832H1094.88C1095.82 504.832 1096.52 505.088 1096.99 505.6C1097.46 506.112 1097.69 506.837 1097.69 507.776V509.056C1097.69 509.952 1097.46 510.656 1096.99 511.168C1096.52 511.68 1095.82 511.936 1094.88 511.936H1094.37Z"
        fill="#0A0A0A" />
    <defs>
        <radialGradient id="paint0_radial_4_57" cx="0" cy="0" r="1" gradientUnits="userSpaceOnUse"
            gradientTransform="translate(600 315) rotate(90) scale(315 600)">
            <stop stop-color="#FDE68A" />
            <stop offset="1" stop-color="#FBBF24" />
        </radialGradient>
    </defs>
</svg>